<svg width="66" height="66" viewBox="0 0 66 66" fill="none" xmlns="http://www.w3.org/2000/svg">
<g clip-path="url(#clip0)">
<path d="M7.86781 37.522C7.29963 37.7886 7.04895 38.4597 7.30216 39.0333L9.89743 44.6046C10.0249 44.882 10.2576 45.098 10.5436 45.2045C10.669 45.2501 10.8019 45.2735 10.9355 45.2735C11.1028 45.275 11.2679 45.2392 11.4199 45.1702L31.0284 36.0115L29.2524 54.5815C29.2181 54.947 29.3589 55.3064 29.6324 55.5506C30.492 56.2622 31.5634 56.6675 32.6781 56.7039C32.9855 56.7036 33.291 56.6649 33.589 56.5891C35.1809 56.1737 36.4151 54.7552 37.2571 52.3326L44.9736 29.4834L60.2563 22.3546C64.7547 20.2556 67.073 15.9995 65.5162 12.6775C64.6326 10.9412 62.9404 9.76001 61.0061 9.52847C58.8569 9.20411 56.6604 9.5422 54.7085 10.498L37.0722 18.7678L18.1102 11.3511C15.7223 10.4517 13.831 10.4748 12.5046 11.4324C11.3918 12.3455 10.7586 13.7181 10.7856 15.1575C10.7972 15.5227 10.9811 15.8604 11.2816 16.0692L24.0499 24.8465L16.7376 28.3069L4.47607 25.1922C3.97363 25.0687 3.4506 25.2952 3.19595 25.746L0.139777 31.2475C-0.018793 31.539 -0.0437163 31.885 0.0715088 32.1964C0.186012 32.5081 0.429465 32.7548 0.739743 32.874L9.81725 36.623L7.86781 37.522ZM13.1497 14.581C13.2177 14.0934 13.4644 13.6495 13.8422 13.3352C14.4999 12.8621 15.6995 12.9314 17.3025 13.531L34.189 20.1173L26.4837 23.716L13.1497 14.581ZM2.76937 31.2363L4.77624 27.6723L16.5758 30.6017C16.8301 30.666 17.0985 30.6418 17.3376 30.533L55.6891 12.62C57.2138 11.868 58.931 11.5942 60.6142 11.8355C61.7946 11.9442 62.8461 12.6255 63.4287 13.6578C64.3968 15.7344 62.4939 18.7678 59.2756 20.2672L45.9882 26.4962L46.7959 24.1079C46.9999 23.4935 46.6665 22.8296 46.0521 22.6258C45.437 22.4221 44.7735 22.7555 44.5697 23.3699L35.0768 51.6171C34.5116 53.2208 33.8079 54.1784 33.0237 54.3854C32.5379 54.4789 32.0351 54.3835 31.6165 54.1206L33.9235 29.898C33.9838 29.2612 33.5168 28.6959 32.8793 28.6356C32.2424 28.5746 31.6772 29.0423 31.6165 29.6791L31.2592 33.3815L11.4658 42.6089L9.84036 39.1485L13.0923 37.6264C13.511 37.4418 13.7808 37.0279 13.7808 36.571C13.7808 36.1137 13.511 35.6997 13.0923 35.5155L2.76937 31.2363Z" fill="#FEC825"/>
</g>
<defs>
<clipPath id="clip0">
<rect width="66" height="66" fill="white"/>
</clipPath>
</defs>
</svg>
