<svg width="90" height="90" viewBox="0 0 90 90" fill="none" xmlns="http://www.w3.org/2000/svg">
<path d="M56.5 3H33.5C33.2239 3 33 3.22386 33 3.5V15H57V3.5C57 3.22386 56.7761 3 56.5 3Z" stroke="#828282" stroke-width="2"/>
<path d="M9 48L9.60058 47.2004L9 48ZM15 76H75V74H15V76ZM75 76C78.866 76 82 72.866 82 69H80C80 71.7614 77.7614 74 75 74V76ZM8 69C8 72.866 11.134 76 15 76V74C12.2386 74 10 71.7614 10 69H8ZM2 18V36H4V18H2ZM18 52H72V50H18V52ZM88 36V18H86V36H88ZM84 14H6V16H84V14ZM88 18C88 15.7909 86.2091 14 84 14V16C85.1046 16 86 16.8954 86 18H88ZM4 18C4 16.8954 4.89543 16 6 16V14C3.79086 14 2 15.7909 2 18H4ZM2 36C2 41.2353 4.51551 45.8822 8.39942 48.7996L9.60058 47.2004C6.19781 44.6445 4 40.5796 4 36H2ZM8.39942 48.7996C11.0734 50.8081 14.399 52 18 52V50C14.8474 50 11.9405 48.958 9.60058 47.2004L8.39942 48.7996ZM8 48V69H10V48H8ZM72 52C75.6008 52 78.9264 50.8093 81.6006 48.8007L80.3994 47.2015C78.0597 48.959 75.1528 50 72 50V52ZM81.6006 48.8007C85.4846 45.8833 88 41.2353 88 36H86C86 40.5796 83.8021 44.6457 80.3994 47.2015L81.6006 48.8007ZM82 69V48.0011H80V69H82Z" fill="#FEC825"/>
<path d="M45 45V57" stroke="#828282" stroke-width="2" stroke-linecap="round" stroke-linejoin="round"/>
</svg>
