<svg width="124" height="124" viewBox="0 0 124 124" fill="none" xmlns="http://www.w3.org/2000/svg">
<path d="M78.7607 110.391C77.7224 111.43 76.4896 112.254 75.1328 112.816C73.776 113.378 72.3217 113.667 70.8531 113.667C69.3844 113.667 67.9301 113.378 66.5733 112.816C65.2165 112.254 63.9838 111.43 62.9455 110.391L18.7757 66.2212C16.6788 64.1248 15.5005 61.2813 15.5 58.3162V26.6755C15.5 20.5117 20.5117 15.5 26.6807 15.5H58.3162C61.2767 15.5 64.1235 16.678 66.2212 18.7757L110.391 62.9455C111.43 63.9838 112.254 65.2165 112.816 66.5733C113.378 67.9301 113.667 69.3844 113.667 70.8531C113.667 72.3217 113.378 73.776 112.816 75.1328C112.254 76.4896 111.43 77.7224 110.391 78.7607L78.7607 110.391Z" stroke="#FEC825" stroke-width="3" stroke-linecap="round" stroke-linejoin="round"/>
<circle cx="30.78" cy="30.7805" r="5.2766" fill="#828282"/>
</svg>
