<svg width="90" height="90" viewBox="0 0 90 90" fill="none" xmlns="http://www.w3.org/2000/svg">
<rect x="11" y="17" width="68" height="62" rx="1.5" stroke="#FEC825" stroke-width="2"/>
<line x1="12" y1="35" x2="78" y2="35" stroke="#FEC825" stroke-width="2"/>
<path d="M27 9L27 21" stroke="#828282" stroke-width="2" stroke-linecap="round" stroke-linejoin="round"/>
<path d="M63 9L63 21" stroke="#828282" stroke-width="2" stroke-linecap="round" stroke-linejoin="round"/>
<rect x="42" y="42" width="6" height="6" rx="0.5" fill="#828282"/>
<rect x="54" y="42" width="6" height="6" rx="0.5" fill="#828282"/>
<rect x="66" y="42" width="6" height="6" rx="0.5" fill="#828282"/>
<rect x="66" y="54" width="6" height="6" rx="0.5" fill="#828282"/>
<rect x="54" y="54" width="6" height="6" rx="0.5" fill="#828282"/>
<rect x="42" y="54" width="6" height="6" rx="0.5" fill="#828282"/>
<rect x="30" y="54" width="6" height="6" rx="0.5" fill="#828282"/>
<rect x="18" y="54" width="6" height="6" rx="0.5" fill="#828282"/>
<rect x="18" y="66" width="6" height="6" rx="0.5" fill="#828282"/>
<rect x="30" y="66" width="6" height="6" rx="0.5" fill="#828282"/>
<rect x="42" y="66" width="6" height="6" rx="0.5" fill="#828282"/>
<rect x="54" y="66" width="6" height="6" rx="0.5" fill="#828282"/>
</svg>
