<svg width="141" height="142" viewBox="0 0 141 142" fill="none" xmlns="http://www.w3.org/2000/svg">
<g clip-path="url(#clip0)">
<path d="M114.36 50.4365C114.358 50.4365 114.357 50.4365 114.356 50.4365H10.7754C9.79601 50.4355 9.00104 51.2284 9 52.2077C9 52.209 9 52.2106 9 52.2119V101.93C8.99897 102.91 9.79187 103.705 10.7712 103.706C10.7725 103.706 10.7741 103.706 10.7754 103.706H81.2099C82.1903 103.706 82.9853 102.911 82.9853 101.93C82.9853 100.95 82.1903 100.155 81.2099 100.155H12.5507V53.9873H112.58V58.4267C112.579 59.4061 113.372 60.201 114.351 60.2021C114.353 60.2021 114.354 60.2021 114.356 60.2021C115.335 60.2031 116.13 59.4102 116.131 58.4308C116.131 58.4296 116.131 58.428 116.131 58.4267V52.2119C116.132 51.2325 115.339 50.4378 114.36 50.4365Z" fill="#828282"/>
<path d="M102.314 42.1937L19.4499 23.5493C18.99 23.4465 18.5081 23.5299 18.1096 23.7813C17.7116 24.0348 17.4301 24.4354 17.3265 24.8959L13.1833 43.5403C12.9705 44.4979 13.5743 45.4467 14.5319 45.6595C15.4895 45.8724 16.4383 45.2685 16.6512 44.3109L20.407 27.4046L101.535 45.6575C101.664 45.6872 101.795 45.702 101.927 45.701C102.907 45.6992 103.701 44.9029 103.699 43.9225C103.697 43.0936 103.123 42.3763 102.314 42.1937Z" fill="#828282"/>
<path d="M92.2537 31.9204L42.5352 11.2044C41.671 10.8442 40.6754 11.2142 40.2564 12.0517L36.1132 20.3381C35.6453 21.2035 35.9674 22.2846 36.8331 22.7525C37.6985 23.2205 38.7796 22.8983 39.2475 22.0327C39.2659 21.9987 39.2833 21.964 39.2993 21.9288V21.933L42.6988 15.1298L90.8823 35.2057C91.7896 35.5843 92.8322 35.156 93.2107 34.2486C93.5893 33.3418 93.161 32.2993 92.2537 31.9204Z" fill="#828282"/>
<path d="M93.5087 58.7227H77.0664C76.086 58.7227 75.291 59.5176 75.291 60.498C75.291 61.4784 76.086 62.2734 77.0664 62.2734H93.5087C94.4891 62.2734 95.2841 61.4784 95.2841 60.498C95.2841 59.5176 94.4891 58.7227 93.5087 58.7227Z" fill="#828282"/>
<path d="M60.4948 58.8408C50.4265 58.8408 42.2646 67.0027 42.2646 77.0709C42.275 87.1348 50.4309 95.2907 60.4948 95.3011C70.563 95.3011 78.7249 87.1392 78.7249 77.0709C78.7249 67.0027 70.563 58.8408 60.4948 58.8408ZM60.4948 91.9865C52.257 91.9865 45.5792 85.3087 45.5792 77.0709C45.5883 68.8371 52.2609 62.1644 60.4948 62.1554C68.7325 62.1554 75.4103 68.8332 75.4103 77.0709C75.4103 85.3087 68.7325 91.9865 60.4948 91.9865Z" fill="#828282"/>
<path d="M110.212 64.6416C99.2329 64.6416 87.4248 67.2352 87.4248 72.928V122.646C87.4248 128.339 99.2329 130.933 110.212 130.933C121.192 130.933 133 128.339 133 122.646V72.928C133 67.2352 121.192 64.6416 110.212 64.6416ZM128.857 122.615C128.544 123.765 122.331 126.79 110.212 126.79C98.0936 126.79 91.8808 123.765 91.568 122.646V119.39C95.9764 121.611 103.258 122.646 110.212 122.646C117.167 122.646 124.451 121.6 128.857 119.388V122.615ZM128.857 114.329C128.544 115.479 122.331 118.503 110.212 118.503C98.0936 118.503 91.8808 115.479 91.568 114.36V111.104C95.9764 113.324 103.258 114.36 110.212 114.36C117.167 114.36 124.451 113.314 128.857 111.101V114.329ZM128.857 106.043C128.544 107.192 122.331 110.217 110.212 110.217C98.0936 110.217 91.8808 107.192 91.568 106.074V102.817C95.9764 105.038 103.258 106.074 110.212 106.074C117.167 106.074 124.451 105.028 128.857 102.815V106.043ZM128.857 97.7562C128.544 98.9059 122.331 101.93 110.212 101.93C98.0936 101.93 91.8808 98.9059 91.568 97.7873V94.5307C95.9764 96.7515 103.258 97.7873 110.212 97.7873C117.167 97.7873 124.451 96.7411 128.857 94.5286V97.7562ZM128.857 89.4698C128.544 90.6195 122.331 93.644 110.212 93.644C98.0936 93.644 91.8808 90.6195 91.568 89.5008V86.2443C95.9764 88.4547 103.258 89.5008 110.212 89.5008C117.167 89.5008 124.451 88.4547 128.857 86.2422V89.4698ZM128.857 81.1834C128.544 82.3331 122.331 85.3576 110.212 85.3576C98.0936 85.3576 91.8808 82.3331 91.568 81.2144V77.9579C95.9764 80.1683 103.258 81.2144 110.212 81.2144C117.167 81.2144 124.451 80.1683 128.857 77.9558V81.1834ZM110.212 77.0712C98.1122 77.0712 91.9015 74.055 91.568 72.9653V72.9529C91.9015 71.799 98.1122 68.7848 110.212 68.7848C122.228 68.7848 128.443 71.7555 128.857 72.928C128.443 74.1005 122.228 77.0712 110.212 77.0712Z" fill="#FEC825"/>
<path d="M43.9209 91.8663H28.2616L20.837 83.7456V70.2801L29.0364 62.2734H43.9209C44.9013 62.2734 45.6962 61.4784 45.6962 60.498C45.6962 59.5176 44.9013 58.7227 43.9209 58.7227H28.3155C27.8514 58.7216 27.4053 58.9024 27.0725 59.2261L17.8187 68.252C17.473 68.656 17.2834 69.1705 17.2842 69.7022V84.4354C17.2842 84.8785 17.4497 85.3055 17.7482 85.6328L26.1651 94.839C26.5015 95.2073 26.9775 95.4173 27.4765 95.417H43.9209C44.9013 95.417 45.6962 94.622 45.6962 93.6416C45.6962 92.6612 44.9015 91.8663 43.9209 91.8663Z" fill="#828282"/>
<path d="M61.5299 74.9996H59.4583C58.814 74.9996 58.4225 74.6392 58.4225 74.4817C58.4225 74.3243 58.814 73.9638 59.4583 73.9638H64.6373C65.7814 73.9638 66.7089 73.0363 66.7089 71.8922C66.7089 70.7482 65.7814 69.8206 64.6373 69.8206H62.5657C62.5657 68.6766 61.6382 67.749 60.4941 67.749C59.3501 67.749 58.4225 68.6766 58.4225 69.8206V69.9138C56.1248 70.2383 54.3842 72.1532 54.2793 74.4714C54.4277 77.1875 56.7411 79.2744 59.4583 79.1428H61.5299C62.1742 79.1428 62.5657 79.5033 62.5657 79.6607C62.5657 79.8182 62.1742 80.1786 61.5299 80.1786H56.3509C55.2069 80.1786 54.2793 81.1062 54.2793 82.2502C54.2793 83.3943 55.2069 84.3218 56.3509 84.3218H58.4225C58.4225 85.4659 59.3501 86.3934 60.4941 86.3934C61.6382 86.3934 62.5657 85.4659 62.5657 84.3218V84.2286C64.8634 83.9042 66.604 81.9892 66.7089 79.6711C66.5605 76.955 64.2471 74.8681 61.5299 74.9996Z" fill="#828282"/>
</g>
<defs>
<clipPath id="clip0">
<rect width="124" height="124" fill="white" transform="translate(9 9)"/>
</clipPath>
</defs>
</svg>
