<svg width="90" height="90" viewBox="0 0 90 90" fill="none" xmlns="http://www.w3.org/2000/svg">
<path d="M45.0008 81.8858C65.3727 81.8858 81.8877 65.3708 81.8877 44.9988C81.8877 24.6267 65.3727 8.11182 45.0008 8.11182C24.6287 8.11182 8.11377 24.6267 8.11377 44.9988C8.11377 65.3708 24.6287 81.8858 45.0008 81.8858Z" stroke="#FEC825" stroke-width="2"/>
<path d="M46 27C46 26.4477 45.5523 26 45 26C44.4477 26 44 26.4477 44 27H46ZM45 45H44C44 45.2652 44.1054 45.5196 44.2929 45.7071L45 45ZM56.2929 57.7071C56.6834 58.0976 57.3166 58.0976 57.7071 57.7071C58.0976 57.3166 58.0976 56.6834 57.7071 56.2929L56.2929 57.7071ZM44 27V45H46V27H44ZM44.2929 45.7071L56.2929 57.7071L57.7071 56.2929L45.7071 44.2929L44.2929 45.7071Z" fill="#828282"/>
</svg>
