<svg width="141" height="142" viewBox="0 0 141 142" fill="none" xmlns="http://www.w3.org/2000/svg">
<g clip-path="url(#clip0)">
<path d="M116.19 112.412C115.642 112.412 115.117 112.195 114.729 111.806L105.941 103.019C105.183 102.26 105.131 101.049 105.819 100.227C112.685 92.055 116.467 81.6762 116.467 70.9998C116.467 60.3234 112.685 49.9446 105.819 41.773C105.129 40.9526 105.183 39.7394 105.941 38.981L114.729 30.1935C115.134 29.7884 115.679 29.5632 116.26 29.59C116.833 29.6107 117.372 29.867 117.748 30.2989C127.583 41.585 133 56.0413 133 70.9998C133 85.9584 127.583 100.415 117.748 111.701C117.372 112.133 116.833 112.389 116.26 112.41C116.237 112.412 116.213 112.412 116.19 112.412ZM110.178 101.409L116.055 107.288C124.332 97.0212 128.867 84.2203 128.867 70.9998C128.867 57.7794 124.332 44.9784 116.055 34.7112L110.178 40.5909C116.911 49.2626 120.6 59.9866 120.6 70.9998C120.6 82.0131 116.911 92.737 110.178 101.409Z" fill="#828282"/>
<path d="M25.8103 112.412C25.7875 112.412 25.7627 112.412 25.74 112.412C25.1675 112.391 24.6281 112.135 24.252 111.703C14.4167 100.415 9 85.9583 9 70.9998C9 56.0392 14.4167 41.5849 24.252 30.2968C24.6281 29.8669 25.1675 29.6086 25.74 29.59C26.3207 29.5672 26.8663 29.7904 27.2714 30.1934L36.0589 38.9809C36.8173 39.7394 36.869 40.9504 36.1808 41.773C29.3153 49.9446 25.5333 60.3234 25.5333 70.9998C25.5333 81.6762 29.3153 92.055 36.1808 100.227C36.8711 101.047 36.8173 102.26 36.0589 103.019L27.2714 111.806C26.8849 112.195 26.3579 112.412 25.8103 112.412ZM25.9446 34.7112C17.6676 44.9784 13.1333 57.7772 13.1333 70.9998C13.1333 84.2202 17.6676 97.0212 25.9446 107.288L31.8222 101.409C25.089 92.737 21.4 82.013 21.4 70.9998C21.4 59.9865 25.089 49.2626 31.8222 40.5908L25.9446 34.7112Z" fill="#828282"/>
<path d="M101.556 36.6665C101.084 36.6665 100.613 36.5053 100.227 36.1829C92.0552 29.3153 81.6764 25.5333 71 25.5333C60.3236 25.5333 49.9448 29.3153 41.7732 36.1808C40.9527 36.8711 39.7396 36.8173 38.9832 36.0589L30.1957 27.2714C29.7886 26.8684 29.5695 26.3125 29.5902 25.74C29.6109 25.1675 29.8671 24.6281 30.2991 24.252C41.5851 14.4167 56.0394 9 71 9C85.9606 9 100.415 14.4167 111.703 24.252C112.135 24.6281 112.391 25.1675 112.412 25.74C112.433 26.3125 112.213 26.8663 111.808 27.2714L103.021 36.0589C102.616 36.4619 102.087 36.6665 101.556 36.6665ZM71 21.4C82.0133 21.4 92.7372 25.089 101.409 31.8243L107.287 25.9446C97.0214 17.6676 84.2225 13.1333 71 13.1333C57.7775 13.1333 44.9786 17.6676 34.7114 25.9446L40.589 31.8243C49.2628 25.089 59.9867 21.4 71 21.4Z" fill="#828282"/>
<path d="M71.0001 133C56.0395 133 41.5853 127.583 30.2971 117.748C29.8652 117.372 29.6089 116.832 29.5883 116.26C29.5676 115.687 29.7867 115.133 30.1917 114.728L38.9792 105.941C39.7377 105.184 40.9487 105.131 41.7692 105.819C49.9449 112.684 60.3237 116.466 71.0001 116.466C81.6765 116.466 92.0553 112.684 100.227 105.819C101.047 105.131 102.261 105.182 103.017 105.941L111.804 114.728C112.209 115.133 112.429 115.687 112.408 116.26C112.387 116.832 112.131 117.372 111.699 117.748C100.415 127.583 85.9607 133 71.0001 133ZM34.7115 116.055C44.9787 124.332 57.7776 128.866 71.0001 128.866C84.2227 128.866 97.0215 124.332 107.289 116.055L101.411 110.175C92.7373 116.911 82.0134 120.6 71.0001 120.6C59.9869 120.6 49.2629 116.911 40.5912 110.175L34.7115 116.055Z" fill="#828282"/>
<path d="M70.9998 108.2C63.7995 108.2 57.3122 104.817 51.7198 98.1439C45.5446 90.7762 42.1429 81.003 42.1429 70.6262L42.0664 50.3419C42.0644 49.7922 42.2814 49.2652 42.6699 48.8766C43.0564 48.486 43.5834 48.267 44.1331 48.267C61.799 48.267 68.9538 37.3012 69.2493 36.8342C69.6296 36.2348 70.2888 35.8711 70.9977 35.8711H71.006C71.7148 35.8732 72.3741 36.2369 72.7523 36.8362C73.0664 37.3343 80.2274 48.267 97.8664 48.267C98.4162 48.267 98.9432 48.486 99.3296 48.8746C99.7182 49.2631 99.9331 49.7901 99.9331 50.3398L99.8566 70.6304C99.8566 81.0009 96.4549 90.7721 90.2797 98.1418C84.6873 104.817 78.2 108.2 70.9998 108.2ZM46.208 52.3548L46.2762 70.618C46.2762 80.0337 49.3349 88.8646 54.886 95.4882C59.6579 101.182 65.0788 104.067 70.9998 104.067C76.9208 104.067 82.3416 101.182 87.1136 95.4882C92.6667 88.8625 95.7233 80.0337 95.7233 70.6262L95.7915 52.3548C81.9903 51.7266 74.2114 44.9458 70.9998 41.2982C67.7882 44.9458 60.0092 51.7266 46.208 52.3548Z" fill="#FEC825"/>
<path d="M68.9356 87.5331C68.3074 87.5331 67.6874 87.2479 67.2802 86.7064L61.0802 78.4398C60.3962 77.5263 60.5801 76.2305 61.4936 75.5464C62.407 74.8603 63.7028 75.0463 64.3869 75.9598L70.5869 84.2264C71.271 85.1399 71.087 86.4357 70.1736 87.1198C69.8016 87.3988 69.3655 87.5331 68.9356 87.5331Z" fill="#FEC825"/>
<path d="M68.9312 87.5335C68.5509 87.5335 68.1686 87.4302 67.8235 87.2111C66.8604 86.5994 66.5773 85.3201 67.189 84.357L81.6557 61.6237C82.2674 60.6627 83.5446 60.3754 84.5097 60.9892C85.4728 61.601 85.7559 62.8802 85.1442 63.8433L70.6775 86.5766C70.2828 87.1946 69.6153 87.5335 68.9312 87.5335Z" fill="#FEC825"/>
</g>
<defs>
<clipPath id="clip0">
<rect width="124" height="124" fill="white" transform="translate(9 9)"/>
</clipPath>
</defs>
</svg>
