<svg width="124" height="124" viewBox="0 0 124 124" fill="none" xmlns="http://www.w3.org/2000/svg">
<path d="M116.758 31.4436C112.589 29.9288 108.152 29.2864 103.724 29.556C99.2963 29.8256 94.9708 31.0016 91.0157 33.011L76.1885 40.3113L48.94 30.301C48.7349 30.2255 48.5154 30.1973 48.2978 30.2186C48.0803 30.2398 47.8704 30.3098 47.6838 30.4235L40.1948 34.9786C39.9845 35.1065 39.8101 35.2858 39.688 35.4997C39.5659 35.7135 39.5002 35.9549 39.497 36.2011C39.4938 36.4473 39.5532 36.6902 39.6696 36.9072C39.786 37.1241 39.9557 37.308 40.1626 37.4414L58.2882 49.1245L37.1592 59.5274L24.9322 51.0751C22.6493 49.4937 20.0109 48.501 17.2518 48.1854C14.4927 47.8698 11.6984 48.241 9.11733 49.2659L3.33994 51.5532C3.10413 51.6465 2.89687 51.8 2.73876 51.9984C2.58065 52.1967 2.47721 52.4329 2.43871 52.6836C2.40021 52.9343 2.42801 53.1907 2.51932 53.4274C2.61064 53.664 2.7623 53.8726 2.95923 54.0324L25.5226 72.3503C28.5498 74.8346 32.3391 76.2028 36.2552 76.2253C36.4182 76.2253 36.5814 76.2228 36.7446 76.2178C37.8475 76.2112 38.9406 76.0096 39.9732 75.6222L59.7001 68.025L50.4289 92.5436C50.3458 92.7636 50.3172 93.0004 50.3458 93.2338C50.3743 93.4672 50.459 93.6901 50.5927 93.8836C50.7263 94.077 50.9049 94.2352 51.1131 94.3444C51.3214 94.4536 51.553 94.5107 51.7881 94.5107H63.8716C64.1263 94.5107 64.3766 94.4437 64.5973 94.3165C64.818 94.1893 65.0013 94.0062 65.129 93.7858L86.2572 57.2981L116.945 45.1483C118.328 44.6009 119.511 43.6462 120.338 42.4109C121.165 41.1756 121.597 39.718 121.577 38.2314C121.557 36.7448 121.085 35.2995 120.224 34.0873C119.364 32.875 118.155 31.953 116.758 31.4436ZM43.6877 36.2549L48.5953 33.2697L72.5869 42.0836L61.3293 47.6263L43.6877 36.2549ZM63.0338 91.6044H53.8913L65.2646 61.5276L84.9501 53.7556L63.0338 91.6044ZM115.875 42.4462L88.605 53.2427L89.5568 51.5992C89.7082 51.338 89.7745 51.0361 89.7465 50.7355C89.7185 50.4349 89.5976 50.1504 89.4005 49.9217C89.2034 49.693 88.94 49.5314 88.6468 49.4592C88.3536 49.3871 88.0453 49.4081 87.7646 49.5193L63.5979 59.0614C63.4095 59.1358 63.2388 59.2487 63.0966 59.3929C62.9544 59.5372 62.8439 59.7095 62.7723 59.8989L61.077 64.3809L38.9146 72.9158C38.1911 73.1813 37.4262 73.316 36.6555 73.3137C33.2688 73.391 29.9671 72.2491 27.3519 70.096L6.71749 53.3432L10.1859 51.97C12.3227 51.1214 14.6362 50.8142 16.9204 51.0755C19.2047 51.3369 21.389 52.1587 23.279 53.4679L36.2082 62.4046C36.421 62.5517 36.6693 62.6394 36.9274 62.6585C37.1854 62.6775 37.4439 62.6274 37.6761 62.5131L92.3179 35.609C95.9191 33.7772 99.8581 32.7046 103.891 32.4578C107.924 32.2109 111.964 32.795 115.762 34.1738C116.605 34.4812 117.335 35.0377 117.854 35.7695C118.374 36.5012 118.658 37.3736 118.671 38.271C118.683 39.1683 118.422 40.0482 117.923 40.7939C117.423 41.5396 116.71 42.1158 115.875 42.4462Z" fill="#FEC825"/>
</svg>
