<svg width="90" height="90" viewBox="0 0 90 90" fill="none" xmlns="http://www.w3.org/2000/svg">
<path d="M7.5 26.25C7.5 24.2609 8.29018 22.3532 9.6967 20.9467C11.1032 19.5402 13.0109 18.75 15 18.75H75C76.9891 18.75 78.8968 19.5402 80.3033 20.9467C81.7098 22.3532 82.5 24.2609 82.5 26.25V63.75C82.5 65.7391 81.7098 67.6468 80.3033 69.0533C78.8968 70.4598 76.9891 71.25 75 71.25H15C13.0109 71.25 11.1032 70.4598 9.6967 69.0533C8.29018 67.6468 7.5 65.7391 7.5 63.75V26.25Z" stroke="#FEC825" stroke-width="2" stroke-linecap="round" stroke-linejoin="round"/>
<path d="M45 56.25C51.2132 56.25 56.25 51.2132 56.25 45C56.25 38.7868 51.2132 33.75 45 33.75C38.7868 33.75 33.75 38.7868 33.75 45C33.75 51.2132 38.7868 56.25 45 56.25Z" stroke="#828282" stroke-width="2" stroke-linecap="round" stroke-linejoin="round"/>
</svg>
