<svg width="66" height="66" viewBox="0 0 66 66" fill="none" xmlns="http://www.w3.org/2000/svg">
<path fill-rule="evenodd" clip-rule="evenodd" d="M32.2989 2.14687C32.6881 1.76406 33.3123 1.76406 33.7015 2.14687L63.4015 31.3629C63.7952 31.7502 63.8004 32.3834 63.4131 32.7771C63.0258 33.1708 62.3926 33.176 61.9989 32.7887L56.0002 26.8877V54.9998C56.0002 55.5521 55.5525 55.9998 55.0002 55.9998H11.0002C10.4479 55.9998 10.0002 55.5521 10.0002 54.9998V26.8877L4.00147 32.7887C3.60775 33.176 2.97461 33.1708 2.5873 32.7771C2.2 32.3834 2.2052 31.7502 2.59892 31.3629L32.2989 2.14687ZM33.0002 4.2625L54.386 25.2998H54.0002V53.9998H42.8002V37.3998C42.8002 36.8475 42.3525 36.3998 41.8002 36.3998H28.6002C28.0479 36.3998 27.6002 36.8475 27.6002 37.3998V53.9998H12.0002V25.2998H11.6144L33.0002 4.2625ZM29.6002 53.9998H40.8002V38.3998H29.6002V53.9998Z" fill="#FEC825"/>
</svg>
