<svg width="66" height="66" viewBox="0 0 66 66" fill="none" xmlns="http://www.w3.org/2000/svg">
<path d="M56.0998 32.45C55.0285 32.45 53.9988 32.6259 53.032 32.9428L51.9881 30.6449C52.9528 30.3962 53.9582 30.25 54.9999 30.25H59.3998C60.0082 30.25 60.4998 29.7572 60.4998 29.1501C60.4998 20.9462 53.8173 13.75 46.1998 13.75C45.839 13.75 45.5013 13.9271 45.2957 14.223C45.0899 14.52 45.0438 14.8983 45.1702 15.236L45.6861 16.6121L43.166 15.9829C42.5754 15.8311 41.9802 16.1941 41.8329 16.7837C41.6844 17.3733 42.043 17.9705 42.6336 18.118L46.6244 19.1157L47.5902 21.6919C43.2221 20.1101 36.7475 18.7066 32.2199 20.5996C30.2421 21.4268 28.7923 22.7963 27.9003 24.6762L18.6998 23.7544V22.5499C18.6998 22.0253 18.3291 21.5742 17.8154 21.4719L6.81541 19.2718C6.4051 19.1905 5.98048 19.3488 5.72525 19.6832C5.47117 20.0165 5.42709 20.4664 5.61529 20.8426L7.24879 24.1074L1.85212 25.9059C1.45728 26.0379 1.17008 26.381 1.11078 26.7935L0.0108213 34.4935C-0.0595616 34.9951 0.218747 35.4802 0.689514 35.6694C1.15809 35.8586 1.69718 35.7024 1.99302 35.2911C4.23045 32.1813 8.10357 30.2498 12.0998 30.2498C17.6494 30.2498 22.3265 34.0106 23.7477 39.1136L21.5796 39.5075C20.3552 35.4308 16.5713 32.4498 12.0998 32.4498C6.64048 32.4498 2.19978 36.8917 2.19978 42.3498C2.19978 47.808 6.64048 52.2499 12.0998 52.2499C17.5591 52.2499 21.9998 47.808 21.9998 42.3498C21.9998 42.1222 21.9811 41.8988 21.9657 41.6745L24.1459 41.2785C24.1767 41.6316 24.1997 41.988 24.1997 42.3498C24.1997 42.957 24.6914 43.4498 25.2997 43.4498H41.7997C42.408 43.4498 42.8997 42.957 42.8997 42.3498C42.8997 37.4977 45.7773 33.3156 49.9088 31.3883L51.033 33.8611C48.1444 35.5914 46.1997 38.7441 46.1997 42.3498C46.1997 47.808 50.6404 52.2499 56.0997 52.2499C61.559 52.2499 65.9997 47.808 65.9997 42.3498C65.9997 36.8917 61.5592 32.45 56.0998 32.45ZM12.0997 50.0499C7.85478 50.0499 4.3997 46.5959 4.3997 42.35C4.3997 38.104 7.85478 34.65 12.0997 34.65C15.4899 34.65 18.3697 36.8555 19.3949 39.9058L11.9028 41.2675C11.3044 41.3765 10.9084 41.9496 11.0174 42.5468C11.1142 43.0782 11.5773 43.4499 12.0986 43.4499C12.1646 43.4499 12.2295 43.4444 12.2966 43.4323L19.7855 42.0705C19.7888 42.164 19.7998 42.2554 19.7998 42.3498C19.7998 46.5959 16.3446 50.0499 12.0997 50.0499ZM40.7415 41.2499H26.3579C25.7935 33.8766 19.6149 28.0499 12.0997 28.0499C8.64897 28.0499 5.27201 29.284 2.67596 31.3982L3.19301 27.7781L9.14836 25.7926C9.44974 25.6914 9.69402 25.4648 9.81609 25.17C9.93817 24.8751 9.92721 24.5419 9.78425 24.2569L8.58968 21.8688L16.4998 23.4516V24.7496C16.4998 25.315 16.9288 25.7879 17.4898 25.8441L28.4897 26.9441C28.9859 26.998 29.4599 26.6988 29.6326 26.228C30.2608 24.5098 31.386 23.3328 33.069 22.6288C37.8188 20.6401 45.5969 23.0821 49.0432 24.6518C49.448 24.8366 49.9243 24.7595 50.2499 24.4549C50.5756 24.1513 50.6855 23.6816 50.5293 23.2647L47.8364 16.0839C51.0561 16.6053 53.948 18.637 55.8741 21.4497H54.9996C54.3913 21.4497 53.8997 21.9425 53.8997 22.5497C53.8997 23.1568 54.3913 23.6496 54.9996 23.6496H57.1105C57.7221 25.0213 58.1247 26.5053 58.2533 28.0496H54.9995C47.4846 28.0499 41.3059 33.8766 40.7415 41.2499ZM56.0998 50.0499C51.8549 50.0499 48.3999 46.5959 48.3999 42.35C48.3999 39.633 49.8178 37.2459 51.9485 35.8754L55.0989 42.8054C55.2826 43.2102 55.6819 43.4499 56.101 43.4499C56.2528 43.4499 56.4068 43.4181 56.5553 43.3509C57.1085 43.099 57.3528 42.4478 57.1009 41.8945L53.9494 34.9612C54.6325 34.762 55.3531 34.6499 56.1 34.6499C60.3449 34.6499 63.7999 38.1039 63.7999 42.3498C63.7999 46.5958 60.3458 50.0499 56.0998 50.0499Z" fill="#FEC825"/>
</svg>
