<svg width="141" height="142" viewBox="0 0 141 142" fill="none" xmlns="http://www.w3.org/2000/svg">
<g clip-path="url(#clip0)">
<path d="M50.4447 92.1636H44.7812V133H50.4447V92.1636Z" fill="#828282"/>
<path d="M73.9926 85.3076H68.3291V133H73.9926V85.3076Z" fill="#828282"/>
<path d="M26.8966 117.798H21.5312V133H26.8966V117.798Z" fill="#828282"/>
<path d="M97.2426 68.019H91.5791V133H97.2426V68.019Z" fill="#828282"/>
<path d="M120.492 52.519H115.127V133H120.492V52.519Z" fill="#828282"/>
<path d="M128.213 9.80481C127.617 9.29808 126.872 9 126.067 9H105.649C104.009 9 102.668 10.3413 102.668 11.9808C102.668 13.6202 104.009 14.9615 105.649 14.9615L118.824 14.9317L86.6016 47.1837L75.3045 35.8269C74.7381 35.2606 73.9929 34.9327 73.1881 34.9029C72.3833 34.9327 71.6381 35.2606 71.0718 35.8269L13.841 93.1173C12.6487 94.25 12.6189 96.1577 13.7516 97.35C14.8843 98.5423 16.7919 98.5721 17.9843 97.4394C18.0141 97.4096 18.0439 97.3798 18.0737 97.3798L73.2179 42.2356L84.515 53.5029C85.0814 54.0394 85.8266 54.3375 86.6314 54.3375C87.4064 54.3375 88.1814 54.0394 88.7477 53.5029L123.116 19.1346L123.086 32.2798C123.086 33.9192 124.397 35.2308 126.037 35.2308H126.067C127.706 35.2606 129.018 33.949 129.047 32.3096C129.047 32.3096 129.047 32.3096 129.047 32.2798L129.077 11.8913C129.078 11.1163 128.75 10.3712 128.213 9.80481Z" fill="#FEC825"/>
</g>
<defs>
<clipPath id="clip0">
<rect width="124" height="124" fill="white" transform="translate(9 9)"/>
</clipPath>
</defs>
</svg>
