 <svg width="124" height="124" viewBox="0 0 124 124" fill="none" xmlns="http://www.w3.org/2000/svg">
<g clip-path="url(#clip0)">
<path d="M13.8927 24.2003C14.7566 24.5629 15.9043 24.1008 16.2705 23.2284L24.9614 2.51993C25.3496 1.59502 24.9144 0.530359 23.9893 0.142133C23.0648 -0.246336 21.9997 0.188875 21.6115 1.11403L12.9208 21.8225C12.5326 22.7474 12.9678 23.8121 13.8927 24.2003Z" fill="#FEC825"/>
<path d="M12.1426 10.7457C14.8316 10.7457 17.019 8.33572 17.019 5.37328C16.7499 -1.7543 7.53446 -1.75236 7.26587 5.37328C7.26587 8.33547 9.45355 10.7457 12.1426 10.7457ZM12.1426 3.63365C12.8166 3.63365 13.3862 4.4302 13.3862 5.37328C13.3051 7.67454 10.9798 7.67406 10.8987 5.37328C10.8987 4.4302 11.4681 3.63365 12.1426 3.63365Z" fill="#FEC825"/>
<path d="M20.863 18.9701C20.863 21.9323 23.0507 24.3425 25.7397 24.3425C32.2081 24.0507 32.2059 13.8883 25.7397 13.5977C23.051 13.5974 20.863 16.0077 20.863 18.9701ZM25.7397 17.2302C26.4137 17.2302 26.9834 18.027 26.9834 18.9699C26.9022 21.2711 24.577 21.2704 24.4959 18.9699C24.4959 18.027 25.0655 17.2302 25.7397 17.2302Z" fill="#FEC825"/>
<path d="M110.107 99.8001C109.182 99.4121 108.118 99.8471 107.729 100.772L99.0384 121.481C98.1537 123.589 101.479 125.052 102.388 122.887L111.079 102.178C111.467 101.253 111.032 100.188 110.107 99.8001Z" fill="#FEC825"/>
<path d="M103.137 105.031C103.137 102.068 100.949 99.6582 98.2599 99.6582C91.7915 99.95 91.7937 110.112 98.2599 110.403C100.949 110.403 103.137 107.993 103.137 105.031ZM98.2601 106.77C97.5861 106.77 97.0165 105.974 97.0165 105.031C97.0976 102.729 99.4228 102.73 99.504 105.031C99.5037 105.974 98.9344 106.77 98.2601 106.77Z" fill="#FEC825"/>
<path d="M111.857 113.255C109.168 113.255 106.981 115.665 106.981 118.627C107.25 125.755 116.465 125.753 116.734 118.627C116.734 115.665 114.546 113.255 111.857 113.255ZM111.857 120.367C111.183 120.367 110.614 119.57 110.614 118.627C110.695 116.326 113.02 116.327 113.101 118.627C113.101 119.57 112.532 120.367 111.857 120.367Z" fill="#FEC825"/>
<path d="M123.182 80.3035L107.573 70.0311C114.741 28.8902 67.6333 -0.0411713 34.2379 24.9808C32.36 26.3913 34.5414 29.2954 36.4195 27.8856C43.3596 22.6733 51.5412 19.7578 60.1836 19.3994V30.3777C33.9352 31.7228 20.7774 63.6955 38.3662 83.0647L30.6073 90.8236C22.3378 82.0124 17.908 68.7928 19.7634 56.1638L23.5417 58.6503C25.4313 59.8935 27.5458 56.9366 25.5388 55.6157L20.4827 52.2883C22.0375 45.6408 25.1765 39.4154 29.6897 34.1788C31.2229 32.3997 28.4712 30.0285 26.9377 31.8071C22.3325 37.1507 19.0458 43.4425 17.2667 50.1716L3.63329 41.1993V1.8164C3.63329 0.813262 2.82027 0 1.81689 0C0.813509 0 0.000488281 0.813262 0.000488281 1.8164V42.1785C0.000488281 42.7895 0.307823 43.3599 0.818352 43.6958L16.4314 53.9708C13.676 68.6933 18.9695 84.511 29.0956 94.4997C29.151 94.576 29.213 94.6492 29.2821 94.7179C29.3508 94.7867 29.424 94.8487 29.5003 94.9042C54.3845 119.952 98.0536 107.763 106.739 73.8306L120.367 82.7997V122.183C120.367 123.186 121.18 123.999 122.184 123.999C123.187 123.999 124 123.186 124 122.183V81.821C124 81.2097 123.692 80.6396 123.182 80.3035ZM62 104.638C50.8967 104.638 40.7711 100.372 33.1762 93.3925L40.9351 85.6335C51.5298 95.545 69.7175 96.4418 81.2807 87.1114C83.1419 85.6791 80.9266 82.8004 79.0652 84.2322C68.3179 92.8771 51.5184 91.5521 42.2153 81.8513C42.2044 81.8399 42.1935 81.8285 42.1824 81.8174C42.1712 81.8063 42.1598 81.7954 42.1487 81.7845C24.6607 64.4693 37.1175 33.9025 62.0007 33.9589C84.1904 33.7656 97.8373 59.3829 85.255 77.6511C83.9409 79.5975 86.9513 81.6304 88.2659 79.6845C102.075 59.6849 87.9275 31.4973 63.8169 30.3777V19.4001C88.5529 20.2323 107.833 43.1765 104.24 67.8374L100.459 65.3487C98.4968 64.0576 96.5 67.0922 98.4617 68.3833L103.522 71.7136C99.1136 90.5598 82.17 104.638 62 104.638Z" fill="#828282"/>
</g>
<defs>
<clipPath id="clip0">
<rect width="124" height="124" fill="white"/>
</clipPath>
</defs>
</svg>
