<svg width="124" height="142" viewBox="0 0 124 142" fill="none" xmlns="http://www.w3.org/2000/svg">
<g clip-path="url(#clip0)">
<path d="M100.572 50.4365C100.57 50.4365 100.569 50.4365 100.568 50.4365H9.47611C8.61484 50.4355 7.91571 51.2284 7.9148 52.2077C7.9148 52.209 7.9148 52.2106 7.9148 52.2119V101.93C7.91388 102.91 8.61119 103.705 9.47247 103.706C9.4736 103.706 9.47497 103.706 9.47611 103.706H71.4185C72.2807 103.706 72.9799 102.911 72.9799 101.93C72.9799 100.95 72.2807 100.155 71.4185 100.155H11.0374V53.9873H99.0066V58.4267C99.0057 59.4061 99.703 60.201 100.564 60.2021C100.565 60.2021 100.567 60.2021 100.568 60.2021C101.429 60.2031 102.128 59.4102 102.129 58.4308C102.129 58.4296 102.129 58.428 102.129 58.4267V52.2119C102.13 51.2325 101.433 50.4378 100.572 50.4365Z" fill="#828282"/>
<path d="M89.9787 42.1932L17.1052 23.5488C16.7008 23.446 16.277 23.5294 15.9265 23.7808C15.5765 24.0344 15.3289 24.4349 15.2379 24.8954L11.5942 43.5398C11.407 44.4974 11.9381 45.4462 12.7802 45.659C13.6223 45.8719 14.4567 45.268 14.6439 44.3104L17.9469 27.4041L89.2937 45.657C89.4066 45.6868 89.5221 45.7015 89.638 45.7005C90.5002 45.6987 91.1979 44.9024 91.1966 43.922C91.1952 43.0931 90.6897 42.3758 89.9787 42.1932Z" fill="#828282"/>
<path d="M81.1304 31.9209L37.4064 11.2049C36.6464 10.8447 35.7708 11.2147 35.4023 12.0522L31.7587 20.3386C31.3472 21.204 31.6305 22.2851 32.3918 22.753C33.1528 23.2209 34.1036 22.8988 34.5151 22.0331C34.5313 21.9992 34.5465 21.9645 34.5607 21.9293V21.9334L37.5503 15.1303L79.9244 35.2062C80.7223 35.5848 81.6392 35.1565 81.9721 34.2491C82.3051 33.3423 81.9284 32.2998 81.1304 31.9209Z" fill="#828282"/>
<path d="M82.2348 58.7227H67.7749C66.9127 58.7227 66.2136 59.5176 66.2136 60.498C66.2136 61.4784 66.9127 62.2734 67.7749 62.2734H82.2348C83.097 62.2734 83.7962 61.4784 83.7962 60.498C83.7962 59.5176 83.097 58.7227 82.2348 58.7227Z" fill="#828282"/>
<path d="M53.2009 58.8408C44.3465 58.8408 37.1687 67.0027 37.1687 77.0709C37.1778 87.1348 44.3504 95.2907 53.2009 95.3011C62.0552 95.3011 69.233 87.1392 69.233 77.0709C69.233 67.0027 62.0552 58.8408 53.2009 58.8408ZM53.2009 91.9865C45.9563 91.9865 40.0836 85.3087 40.0836 77.0709C40.0916 68.8371 45.9597 62.1644 53.2009 62.1554C60.4454 62.1554 66.3181 68.8332 66.3181 77.0709C66.3181 85.3087 60.4454 91.9865 53.2009 91.9865Z" fill="#828282"/>
<path d="M96.9245 64.6416C87.2687 64.6416 76.8843 67.2352 76.8843 72.928V122.646C76.8843 128.339 87.2687 130.933 96.9245 130.933C106.58 130.933 116.965 128.339 116.965 122.646V72.928C116.965 67.2352 106.58 64.6416 96.9245 64.6416ZM113.321 122.615C113.046 123.765 107.582 126.79 96.9245 126.79C86.2667 126.79 80.803 123.765 80.5279 122.646V119.39C84.4048 121.611 90.8086 122.646 96.9245 122.646C103.04 122.646 109.446 121.6 113.321 119.388V122.615ZM113.321 114.329C113.046 115.479 107.582 118.503 96.9245 118.503C86.2667 118.503 80.803 115.479 80.5279 114.36V111.104C84.4048 113.324 90.8086 114.36 96.9245 114.36C103.04 114.36 109.446 113.314 113.321 111.101V114.329ZM113.321 106.043C113.046 107.192 107.582 110.217 96.9245 110.217C86.2667 110.217 80.803 107.192 80.5279 106.074V102.817C84.4048 105.038 90.8086 106.074 96.9245 106.074C103.04 106.074 109.446 105.028 113.321 102.815V106.043ZM113.321 97.7562C113.046 98.9059 107.582 101.93 96.9245 101.93C86.2667 101.93 80.803 98.9059 80.5279 97.7873V94.5307C84.4048 96.7515 90.8086 97.7873 96.9245 97.7873C103.04 97.7873 109.446 96.7411 113.321 94.5286V97.7562ZM113.321 89.4698C113.046 90.6195 107.582 93.644 96.9245 93.644C86.2667 93.644 80.803 90.6195 80.5279 89.5008V86.2443C84.4048 88.4547 90.8086 89.5008 96.9245 89.5008C103.04 89.5008 109.446 88.4547 113.321 86.2422V89.4698ZM113.321 81.1834C113.046 82.3331 107.582 85.3576 96.9245 85.3576C86.2667 85.3576 80.803 82.3331 80.5279 81.2144V77.9579C84.4048 80.1683 90.8086 81.2144 96.9245 81.2144C103.04 81.2144 109.446 80.1683 113.321 77.9558V81.1834ZM96.9245 77.0712C86.2831 77.0712 80.8213 74.055 80.5279 72.9653V72.9529C80.8213 71.799 86.2831 68.7848 96.9245 68.7848C107.491 68.7848 112.957 71.7555 113.321 72.928C112.957 74.1005 107.491 77.0712 96.9245 77.0712Z" fill="#FEC825"/>
<path d="M38.6254 91.8663H24.8541L18.3246 83.7456V70.2801L25.5355 62.2734H38.6254C39.4876 62.2734 40.1867 61.4784 40.1867 60.498C40.1867 59.5176 39.4876 58.7227 38.6254 58.7227H24.9015C24.4934 58.7216 24.101 58.9024 23.8084 59.2261L15.6702 68.252C15.3662 68.656 15.1995 69.1705 15.2002 69.7022V84.4354C15.2002 84.8785 15.3457 85.3055 15.6083 85.6328L23.0104 94.839C23.3062 95.2073 23.7248 95.4173 24.1636 95.417H38.6254C39.4876 95.417 40.1867 94.622 40.1867 93.6416C40.1867 92.6612 39.4878 91.8663 38.6254 91.8663Z" fill="#828282"/>
<path d="M54.1115 74.9996H52.2897C51.7231 74.9996 51.3788 74.6392 51.3788 74.4817C51.3788 74.3243 51.7231 73.9638 52.2897 73.9638H56.8443C57.8504 73.9638 58.6661 73.0363 58.6661 71.8922C58.6661 70.7482 57.8504 69.8206 56.8443 69.8206H55.0225C55.0225 68.6766 54.2067 67.749 53.2006 67.749C52.1945 67.749 51.3788 68.6766 51.3788 69.8206V69.9138C49.3581 70.2383 47.8273 72.1532 47.7351 74.4714C47.8656 77.1875 49.9001 79.2744 52.2897 79.1428H54.1115C54.6781 79.1428 55.0225 79.5033 55.0225 79.6607C55.0225 79.8182 54.6781 80.1786 54.1115 80.1786H49.5569C48.5508 80.1786 47.7351 81.1062 47.7351 82.2502C47.7351 83.3943 48.5508 84.3218 49.5569 84.3218H51.3788C51.3788 85.4659 52.1945 86.3934 53.2006 86.3934C54.2067 86.3934 55.0225 85.4659 55.0225 84.3218V84.2286C57.0431 83.9042 58.5739 81.9892 58.6661 79.6711C58.5356 76.955 56.5011 74.8681 54.1115 74.9996Z" fill="#828282"/>
</g>
<defs>
<clipPath id="clip0">
<rect width="109.05" height="124" fill="white" transform="translate(7.91479 9)"/>
</clipPath>
</defs>
</svg>
