<svg width="124" height="124" viewBox="0 0 124 124" fill="none" xmlns="http://www.w3.org/2000/svg">
<path d="M62.0001 24.9878C68.9516 24.9878 74.4001 19.3515 74.4001 12.4C74.5879 5.63631 68.9514 0 62.0001 0C55.0488 0 49.6001 5.63631 49.6001 12.5879C49.5998 19.3515 55.2364 24.9878 62.0001 24.9878ZM62.0001 3.75762C66.8848 3.75762 70.6424 7.70314 70.6424 12.5879C70.6424 17.4726 66.6969 21.4181 62.0001 21.4181C57.3032 21.4181 53.3577 17.4726 53.3577 12.5879C53.3575 7.70314 57.303 3.75762 62.0001 3.75762Z" fill="#828282"/>
<path d="M110.661 99.9521H99.5755C92.2482 99.9521 86.2361 105.964 86.2361 113.292V122.122C86.2361 123.249 86.9877 124.001 88.1148 124.001H122.121C123.248 124.001 123.999 123.249 123.999 122.122V113.479C124 105.964 117.988 99.9521 110.661 99.9521ZM89.8061 120.243V113.479C89.8061 108.219 94.1274 103.897 99.3879 103.897H110.473C115.733 103.897 120.055 108.219 120.055 113.479V120.243H89.8061Z" fill="#828282"/>
<path d="M24.6121 99.5762H13.3394C6.01209 99.5762 0 105.588 0 112.916V121.558C0 122.685 0.751574 123.437 1.87869 123.437H36.0726C37.1999 123.437 37.9512 122.685 37.9512 121.558V112.916C37.9515 105.588 31.9394 99.5762 24.6121 99.5762ZM3.75762 119.867V113.103C3.75762 107.655 8.07892 103.334 13.3394 103.334H24.4244C29.6849 103.334 34.0062 107.655 34.0062 112.915V119.867H3.75762Z" fill="#828282"/>
<path d="M92.6242 86.988C92.6242 93.9395 98.2605 99.5758 105.024 99.5758C111.788 99.5758 117.424 93.9395 117.424 86.988C117.424 80.0364 111.788 74.4001 105.024 74.4001C100.515 74.4001 96.5697 76.8425 94.5029 80.2243L80.7877 74.2122C80.224 65.0062 72.8966 57.6788 63.8785 56.7396L64.0664 49.4122H79.2845C80.4119 49.4122 81.1632 48.6607 81.1632 47.5336V38.8912C81.1632 31.5639 75.1511 25.5518 67.8237 25.5518H56.3632C49.0359 25.5518 43.0238 31.5639 43.0238 38.8912V47.5336C43.0238 48.6609 43.7754 49.4122 44.9025 49.4122H60.1206V56.7396C50.9146 57.6791 43.7751 65.194 43.2114 74.4001L29.872 80.4122C27.8054 76.6546 23.672 74.0243 18.9749 74.0243C12.0234 74.0243 6.57495 79.6606 6.57495 86.6122C6.57495 93.5637 12.2113 99.2 18.9749 99.2C25.9265 99.2 31.3749 93.5637 31.3749 86.6122C31.3749 85.6727 31.187 84.7335 30.9991 83.9819L43.2112 78.5335C44.5264 87.5516 52.4172 94.5032 61.8112 94.5032H61.999C71.393 94.5032 79.284 87.3637 80.599 78.3456L92.999 83.794C92.8121 84.7332 92.6242 85.8606 92.6242 86.988ZM105.024 78.3454C109.909 78.3454 113.667 82.2909 113.667 87.1756C113.667 92.0603 109.721 96.0058 105.024 96.0058C100.327 96.0058 96.3818 92.0603 96.3818 87.1756C96.3818 82.103 100.327 78.3454 105.024 78.3454ZM18.9757 95.2545C14.0909 95.2545 10.3333 91.309 10.3333 86.4243C10.3333 81.5395 14.2788 77.594 18.9757 77.594C23.6725 77.594 27.618 81.5395 27.618 86.4243C27.8059 91.309 23.8607 95.2545 18.9757 95.2545ZM46.9696 45.6546V38.8909H46.7817C46.7817 33.6304 51.103 29.3091 56.3635 29.3091H67.6363C72.8969 29.3091 77.2182 33.6304 77.2182 38.8909V45.6546H62.1879H46.9696ZM62 90.7456C53.5456 90.7456 46.7819 83.9819 46.7819 75.7153C46.7819 67.4488 53.5456 60.4972 61.8122 60.4972C70.0787 60.4972 76.8424 67.2609 76.8424 75.5274C77.2182 83.794 70.4545 90.7456 62 90.7456Z" fill="#828282"/>
<path d="M68.0124 76.0908C66.885 74.9634 65.3821 74.2121 63.3153 73.8363V68.7637C64.6306 68.9516 65.9456 69.5153 67.2608 70.2666L68.9516 67.8242C67.2608 66.6969 65.194 65.9455 63.3153 65.7576V64.4424H61.6245V65.7576C59.9337 65.7576 58.4306 66.3213 57.3032 67.4484C56.1758 68.3879 55.6124 69.7029 55.6124 71.3939C55.6124 72.8971 56.1761 74.2121 57.1153 74.9637C58.0545 75.7152 59.5577 76.4668 61.6245 76.8424V82.1029C59.9337 81.915 58.4306 80.9755 56.9274 79.6605L54.8608 82.1029C56.9274 83.7937 58.9943 84.7331 61.6245 85.1089V87.1755H63.3153V85.2968C65.194 85.2968 66.6971 84.7331 67.8245 83.606C68.9519 82.6665 69.5153 81.3515 69.5153 79.6605C69.5153 78.1576 68.9516 76.8424 68.0124 76.0908ZM61.4366 73.2726C60.4972 72.8968 59.7458 72.521 59.37 72.3332C58.9942 71.9574 58.8064 71.5816 58.8064 70.8303C58.8064 70.2666 58.9943 69.7029 59.5579 69.3274C59.9337 68.9516 60.6853 68.7637 61.4366 68.5758V73.2726ZM65.1942 81.1637C64.6306 81.5394 64.0669 81.9152 63.1277 81.9152V77.0305C64.255 77.4063 65.0063 77.7821 65.3821 78.1579C65.7579 78.5336 65.9458 79.0973 65.9458 79.6608C65.9456 80.2242 65.7577 80.7879 65.1942 81.1637Z" fill="#FEC825"/>
</svg>
