<svg width="124" height="142" viewBox="0 0 124 142" fill="none" xmlns="http://www.w3.org/2000/svg">
<g clip-path="url(#clip0)">
<path d="M44.3625 92.1631H39.3818V133H44.3625V92.1631Z" fill="#828282"/>
<path d="M65.0714 85.3076H60.0908V133H65.0714V85.3076Z" fill="#828282"/>
<path d="M23.6535 117.798H18.9351V133H23.6535V117.798Z" fill="#828282"/>
<path d="M85.518 68.0195H80.5374V133H85.518V68.0195Z" fill="#828282"/>
<path d="M105.965 52.5195H101.246V133H105.965V52.5195Z" fill="#828282"/>
<path d="M112.754 9.80481C112.23 9.29808 111.575 9 110.867 9H92.9105C91.4687 9 90.2891 10.3413 90.2891 11.9808C90.2891 13.6202 91.4687 14.9615 92.9105 14.9615L104.497 14.9317L76.1598 47.1837L66.2248 35.8269C65.7267 35.2606 65.0714 34.9327 64.3636 34.9029C63.6558 34.9327 63.0005 35.2606 62.5024 35.8269L12.1718 93.1173C11.1233 94.25 11.097 96.1577 12.0932 97.35C13.0893 98.5423 14.767 98.5721 15.8155 97.4394C15.8418 97.4096 15.868 97.3798 15.8942 97.3798L64.3898 42.2356L74.3249 53.5029C74.8229 54.0394 75.4783 54.3375 76.1861 54.3375C76.8676 54.3375 77.5492 54.0394 78.0472 53.5029L108.272 19.1346L108.245 32.2798C108.245 33.9192 109.399 35.2308 110.841 35.2308H110.867C112.309 35.2606 113.462 33.949 113.488 32.3096C113.488 32.3096 113.488 32.3096 113.488 32.2798L113.514 11.8913C113.515 11.1163 113.226 10.3712 112.754 9.80481Z" fill="#FEC825"/>
</g>
<defs>
<clipPath id="clip0">
<rect width="109.05" height="124" fill="white" transform="translate(7.91479 9)"/>
</clipPath>
</defs>
</svg>
