<svg width="124" height="124" viewBox="0 0 124 124" fill="none" xmlns="http://www.w3.org/2000/svg">
<g clip-path="url(#clip0)">
<path d="M94.352 91.4777C93.4114 89.8569 91.6772 88.8616 89.8033 88.8665C89.656 88.8667 89.5093 88.8822 89.3654 88.913L52.1992 96.9694L40.5202 89.2116C40.181 88.9863 39.7829 88.8665 39.3758 88.8665H28.9335C28.9337 87.7254 28.0089 86.8001 26.8678 86.7998C26.8676 86.7998 26.8671 86.7998 26.8668 86.7998H16.5335C15.3924 86.7995 14.4671 87.7244 14.4668 88.8654C14.4668 88.8657 14.4668 88.8662 14.4668 88.8665V113.666C14.4665 114.808 15.3914 115.733 16.5324 115.733C16.5327 115.733 16.5332 115.733 16.5335 115.733H26.8668C28.0079 115.733 28.9332 114.809 28.9335 113.668C28.9335 113.667 28.9335 113.667 28.9335 113.666H32.6026L50.821 123.741C51.4821 124.107 52.2899 124.083 52.928 123.679L92.4488 98.6449C94.9536 97.191 95.8056 93.9822 94.352 91.4777ZM24.8001 111.6H18.6001V90.9331H24.8001V111.6ZM90.3057 95.1119L51.7515 119.532L34.1366 109.791C33.8302 109.622 33.4856 109.533 33.1355 109.533H28.9335V92.9998H38.7522L52.347 102.029C53.7665 102.968 54.1566 104.879 53.2183 106.299C53.1837 106.351 53.1476 106.402 53.1101 106.452C52.114 107.769 50.2656 108.083 48.89 107.171L40.5205 101.612L38.2317 105.055L46.6014 110.614C49.883 112.862 54.3659 112.025 56.6141 108.743C58.3747 106.174 58.284 102.764 56.3894 100.291L89.9771 93.0099C90.424 93.061 90.7901 93.3881 90.8914 93.8262C91.0376 94.3403 90.7898 94.8849 90.3057 95.1119Z" fill="#828282"/>
<path d="M70.2669 5.41069e-08C69.1258 -0.000258279 68.2005 0.924575 68.2002 2.06563C68.2002 2.06589 68.2002 2.06641 68.2002 2.06667V39.2667C68.1999 40.4077 69.1248 41.3331 70.2658 41.3333C70.2661 41.3333 70.2666 41.3333 70.2669 41.3333H107.467C108.608 41.3336 109.533 40.4088 109.534 39.2677C109.534 39.2674 109.534 39.2669 109.534 39.2667C109.509 17.5904 91.9431 0.0245417 70.2669 5.41069e-08ZM72.3335 37.2V4.19378C90.1001 5.2638 104.27 19.4334 105.34 37.2H72.3335Z" fill="#FEC825"/>
<path d="M78.5335 10.333C77.3924 10.3327 76.4671 11.2576 76.4668 12.3986C76.4668 12.3989 76.4668 12.3994 76.4668 12.3997V30.9997C76.4665 32.1407 77.3914 33.0661 78.5324 33.0663C78.5327 33.0663 78.5332 33.0663 78.5335 33.0663H97.1335C98.2745 33.0666 99.1999 32.1418 99.2001 31.0007C99.2001 31.0005 99.2001 30.9999 99.2001 30.9997C99.187 19.5912 89.942 10.3462 78.5335 10.333ZM80.6001 28.933V14.5945C88.0877 15.5498 93.9828 21.4455 94.9376 28.933H80.6001Z" fill="#FEC825"/>
<path d="M99.2011 45.4666C99.2008 45.4666 99.2003 45.4666 99.2001 45.4666H64.0667V10.3333C64.067 9.19221 63.1422 8.26686 62.0011 8.2666C62.0008 8.2666 62.0003 8.2666 62.0001 8.2666C40.3138 8.2666 22.7334 25.847 22.7334 47.5333C22.7334 69.2196 40.3138 86.7999 62.0001 86.7999C83.6864 86.7999 101.267 69.2196 101.267 47.5333C101.267 46.3922 100.342 45.4669 99.2011 45.4666ZM62.0001 82.6666C42.5964 82.6666 26.8667 66.9367 26.8667 47.533C26.8667 28.9322 41.3647 13.5547 59.9334 12.4606V47.5333C59.9331 48.6743 60.858 49.5997 61.999 49.5999C61.9993 49.5999 61.9998 49.5999 62.0001 49.5999H97.0729C95.9567 68.1586 80.5921 82.6444 62.0001 82.6666Z" fill="#FEC825"/>
</g>
<defs>
<clipPath id="clip0">
<rect width="124" height="124" fill="white"/>
</clipPath>
</defs>
</svg>
