<svg width="66" height="66" viewBox="0 0 66 66" fill="none" xmlns="http://www.w3.org/2000/svg">
<path d="M65.3113 38.3405C64.0565 33.1897 61.0051 28.6417 56.7192 25.5341C52.6394 22.5761 47.6718 21.0784 42.6736 21.2855C40.3696 16.3411 36.3582 12.4342 31.3103 10.241C30.8148 10.0259 30.239 10.2529 30.0236 10.7482C29.8085 11.2436 30.0355 11.8197 30.5308 12.0349C35.3323 14.121 39.1068 17.9039 41.1593 22.6866C41.6085 23.7334 41.9727 24.824 42.2416 25.9281C42.313 26.2212 42.3789 26.5227 42.4429 26.85C42.4429 26.8503 42.4431 26.8505 42.4431 26.8507C43.4222 31.8484 42.5009 37.002 39.8488 41.3625C37.3416 45.4847 33.4935 48.5595 28.9507 50.0906C28.8687 49.9043 28.7903 49.716 28.7155 49.5263C28.7146 49.5241 28.7138 49.522 28.713 49.5199C28.569 49.1548 28.4391 48.7835 28.3218 48.4078C28.3124 48.3776 28.303 48.3475 28.2938 48.3172C28.2395 48.1397 28.1878 47.9611 28.1396 47.7816C28.1385 47.777 28.1373 47.7725 28.1362 47.768C36.6803 44.9004 41.8475 36.0039 39.981 27.0896C39.981 27.0895 39.981 27.0894 39.981 27.0893C39.9349 26.8693 39.8936 26.6853 39.8509 26.5101C39.5263 25.1781 39.0518 23.887 38.4404 22.6725C38.4391 22.67 38.4377 22.6676 38.4364 22.6651C38.4323 22.6569 38.428 22.6491 38.4236 22.6411C36.6284 19.0933 33.6487 16.2049 30.0289 14.5061C28.2935 13.6916 26.4414 13.1676 24.5536 12.9417L31.5007 6.48424C31.8529 6.15682 31.9149 5.62199 31.6469 5.22277L31.6423 5.21593C31.6421 5.21581 31.6421 5.21568 31.642 5.21555L28.4304 0.432738C28.2488 0.162293 27.9443 0 27.6186 0H17.2094C16.8835 0 16.5792 0.162293 16.3974 0.432738L13.1808 5.22302C12.9128 5.62225 12.9747 6.15708 13.327 6.4845L20.2735 12.9414C19.5662 13.0258 18.8622 13.1518 18.166 13.3213C8.5513 15.6637 2.63476 25.3916 4.97686 35.0063C5.9425 38.9702 8.25391 42.5174 11.4853 44.9949C14.4542 47.271 18.0888 48.5714 21.8008 48.6986C21.8186 48.7753 21.8366 48.8513 21.8549 48.927C21.8985 49.1059 21.9447 49.2836 21.9924 49.4604C22.0034 49.5014 22.0153 49.5424 22.0265 49.5834C22.0654 49.7248 22.1055 49.8656 22.147 50.0056C22.1585 50.0441 22.1702 50.0827 22.182 50.1212C22.2273 50.2711 22.2741 50.4203 22.3224 50.5685C22.3306 50.594 22.3389 50.6195 22.3472 50.6451C22.4051 50.8206 22.4645 50.9952 22.5264 51.1684C18.2249 51.1902 13.9874 49.8428 10.4648 47.3016C6.53327 44.4654 3.7351 40.3056 2.58603 35.5886C1.43903 30.8803 2.00609 25.9074 4.18305 21.5861C6.33592 17.3125 9.92621 13.9196 14.2928 12.0324C14.7886 11.818 15.0167 11.2424 14.8025 10.7467C14.5881 10.251 14.0124 10.0225 13.5168 10.237C8.73035 12.3058 4.79523 16.0238 2.43637 20.7062C0.0505779 25.4424 -0.571008 30.8921 0.685828 36.0516C1.94511 41.2207 5.01179 45.7794 9.32061 48.8878C13.1449 51.6467 17.739 53.1248 22.409 53.1247C22.7129 53.1247 23.0173 53.1166 23.3218 53.1041C26.9929 60.9647 34.9574 66.0001 43.5836 66C45.3307 66 47.1053 65.7934 48.8764 65.3619C60.8573 62.4432 68.23 50.3215 65.3113 38.3405ZM41.52 42.379C44.2149 37.9482 45.2776 32.7694 44.5624 27.6722C47.7449 27.8694 50.8462 29.031 53.3868 30.9996C56.2716 33.235 58.2539 36.295 59.1198 39.8489C61.2068 48.4159 55.935 57.0834 47.3681 59.1704C43.2182 60.1816 38.9229 59.5159 35.2734 57.2963C33.0146 55.9224 31.1712 54.0546 29.8542 51.8469C34.7119 50.1382 38.824 46.8118 41.52 42.379ZM27.7435 45.8342C27.2439 42.2751 27.9523 38.6714 29.7944 35.5356C31.7218 32.2545 34.6985 29.8078 38.2517 28.5572C39.2993 36.0517 34.8803 43.3173 27.7435 45.8342ZM17.7306 1.95589H27.0972L28.9956 4.78307H15.8323L17.7306 1.95589ZM16.4735 6.73896H28.3543L22.4139 12.2607L16.4735 6.73896ZM21.4329 46.7212C18.2795 46.5272 15.2054 45.3825 12.6755 43.4427C9.75515 41.2037 7.75028 38.1263 6.87745 34.5433C4.79046 25.9764 10.0622 17.3088 18.6292 15.2216C22.2123 14.3487 25.867 14.7137 29.1982 16.277C32.0844 17.6314 34.5116 19.8347 36.1365 22.546C31.1181 24.3107 26.9206 27.783 24.2307 32.4264C21.705 36.7862 20.739 41.7881 21.4329 46.7212ZM48.4135 63.4616C46.7966 63.8555 45.1786 64.044 43.5838 64.0438C35.4632 64.0432 27.9844 59.1521 24.7879 51.586C24.753 51.5031 24.7181 51.4203 24.6842 51.337C24.6705 51.3034 24.6574 51.2695 24.6438 51.2359C24.6022 51.132 24.5609 51.0278 24.5211 50.9231C24.5152 50.9075 24.5095 50.8918 24.5036 50.8761C24.4579 50.7555 24.4131 50.6346 24.3698 50.5132C24.3684 50.5093 24.3671 50.5053 24.3656 50.5015C24.3189 50.3704 24.2733 50.2388 24.2293 50.1066C24.229 50.1059 24.2287 50.1052 24.2285 50.1044C24.1838 49.9705 24.1404 49.8362 24.0986 49.7015C24.0956 49.6919 24.0929 49.6823 24.0899 49.6727C24.0511 49.5472 24.0132 49.4215 23.9769 49.2954C23.965 49.2542 23.9539 49.2125 23.9422 49.171C23.9152 49.0756 23.8883 48.9803 23.8628 48.8845C23.8257 48.745 23.7898 48.6049 23.7555 48.464C23.7207 48.3213 23.6881 48.1783 23.6565 48.0352C23.6443 47.9795 23.6323 47.9226 23.6203 47.8657C23.6065 47.8006 23.5932 47.7355 23.5801 47.6704C23.5715 47.6276 23.5628 47.5855 23.5542 47.5418C23.553 47.5359 23.5512 47.5303 23.5501 47.5245C22.6052 42.6796 23.4352 37.7017 25.9232 33.4067C28.424 29.0896 32.3524 25.8821 37.0456 24.3015C37.375 25.0506 37.6476 25.8278 37.8603 26.6231C33.7574 27.9977 30.3181 30.7827 28.1083 34.5446C25.8336 38.4165 25.0996 42.9242 26.0164 47.3014C26.0164 47.3016 26.0165 47.302 26.0165 47.3023C26.0169 47.3045 26.0175 47.3063 26.0178 47.3085C26.0341 47.3859 26.0506 47.4633 26.0679 47.5406C26.0944 47.6612 26.1203 47.7736 26.1466 47.8816C26.1853 48.0403 26.2264 48.1979 26.2691 48.3549C26.2795 48.3933 26.2909 48.4316 26.3016 48.47C26.3356 48.592 26.3705 48.7135 26.4069 48.8343C26.4178 48.8708 26.4293 48.907 26.4406 48.9434C26.48 49.0709 26.5206 49.1978 26.5625 49.3242C26.571 49.3496 26.5795 49.3748 26.588 49.4001C26.6371 49.5459 26.6881 49.6908 26.7409 49.8348C26.7428 49.8399 26.7446 49.8451 26.7465 49.8502C28.1392 53.6447 30.7529 56.8355 34.2575 58.9671C37.1045 60.6987 40.3014 61.5877 43.5508 61.5875C44.9758 61.5875 46.4114 61.4165 47.8315 61.0705C57.4462 58.7283 63.3627 49.0004 61.0205 39.3856C60.0488 35.3971 57.8235 31.9626 54.5851 29.4533C51.6057 27.1447 47.9385 25.8221 44.1966 25.6939C44.1788 25.6169 44.1607 25.5406 44.1422 25.4648C43.9581 24.7089 43.7332 23.9586 43.4702 23.2225C47.7876 23.1967 52.0422 24.5588 55.5711 27.1175C59.4818 29.9528 62.2659 34.1029 63.4111 38.8032C66.0743 49.7365 59.3465 60.7981 48.4135 63.4616Z" fill="#FEC825"/>
</svg>
