<svg width="124" height="124" viewBox="0 0 124 124" fill="none" xmlns="http://www.w3.org/2000/svg">
<path d="M95.0665 70.2669L101.68 63.6535C114.08 51.2531 117.387 22.3199 109.533 14.4669C101.68 6.61397 72.7466 9.92031 60.3466 22.3199L53.7333 28.9336M95.0665 70.2669L99.1998 99.2002L82.6665 115.734L70.2665 95.0669M95.0665 70.2669L70.2665 95.0669M70.2665 95.0669L61.9999 103.334L49.5998 90.9336M53.7333 28.9336L24.7999 24.8002L8.2666 41.3336L28.9334 53.7336M53.7333 28.9336L28.9334 53.7336M28.9334 53.7336L20.6667 62.0002L33.0667 74.4002M12.3999 111.6L28.9335 95.0669M8.2666 90.9334L16.5333 82.6668M33.0666 115.733L41.3333 107.467" stroke="#FEC825" stroke-width="4" stroke-linecap="round" stroke-linejoin="round"/>
<ellipse cx="78.533" cy="45.4671" rx="10.3235" ry="10.3235" fill="#828282"/>
</svg>
