<svg width="124" height="124" viewBox="0 0 124 124" fill="none" xmlns="http://www.w3.org/2000/svg">
<path d="M61.9997 120.649C61.6589 120.65 61.3261 120.545 61.0462 120.351C28.6538 97.9236 15.436 75.0003 15.436 41.2321V25.6936C15.436 25.3735 15.5277 25.06 15.7003 24.7904C15.8728 24.5208 16.1189 24.3062 16.4096 24.1721L61.2993 3.50595C61.519 3.40487 61.7579 3.35254 61.9997 3.35254C62.2415 3.35254 62.4805 3.40487 62.7001 3.50595L107.59 24.1721C107.88 24.3062 108.127 24.5208 108.299 24.7904C108.472 25.06 108.563 25.3735 108.563 25.6936V41.2321C108.563 75.0003 95.349 97.9236 62.9532 120.351C62.6734 120.545 62.3406 120.65 61.9997 120.649ZM18.7874 26.7677V41.2321C18.7874 78.7756 36.0267 98.7581 61.9997 116.932C87.9727 98.7581 105.212 78.7756 105.212 41.2321V26.7677L61.9997 6.87071L18.7874 26.7677Z" fill="#FEC825"/>
<path opacity="0.2" d="M62.0001 108.735C61.6376 108.735 61.2848 108.617 60.9947 108.4C42.3713 94.4798 25.1353 76.6824 25.1353 41.0257V31.838C25.1351 31.5174 25.2269 31.2035 25.3997 30.9335C25.5726 30.6635 25.8193 30.4488 26.1105 30.3148L61.2997 14.1144C61.5194 14.0133 61.7583 13.9609 62.0001 13.9609C62.2419 13.9609 62.4809 14.0133 62.7006 14.1144L97.8897 30.3148C98.181 30.4488 98.4277 30.6635 98.6005 30.9335C98.7734 31.2035 98.8652 31.5174 98.865 31.838V41.0274C98.865 76.6841 81.629 94.4814 63.0055 108.401C62.7153 108.618 62.3625 108.735 62.0001 108.735ZM28.4866 32.9087V41.0257C28.4866 68.2705 38.2055 86.8739 62.0001 104.959C85.7947 86.8739 95.5136 68.2621 95.5136 41.0257V32.9087L62.0001 17.4791L28.4866 32.9087Z" fill="#FEC825"/>
<path d="M54.9927 68.8556C54.5483 68.8555 54.1222 68.6789 53.808 68.3646L44.0589 58.6155C43.8989 58.4609 43.7712 58.276 43.6834 58.0716C43.5956 57.8671 43.5494 57.6473 43.5474 57.4248C43.5455 57.2023 43.5879 56.9816 43.6721 56.7757C43.7564 56.5697 43.8808 56.3827 44.0382 56.2253C44.1955 56.068 44.3826 55.9436 44.5885 55.8593C44.7945 55.7751 45.0151 55.7327 45.2376 55.7346C45.4601 55.7365 45.68 55.7828 45.8844 55.8706C46.0889 55.9584 46.2738 56.0861 46.4283 56.2461L54.9927 64.8105L77.5724 42.2274C77.727 42.0673 77.9119 41.9397 78.1164 41.8519C78.3208 41.764 78.5407 41.7178 78.7632 41.7159C78.9857 41.714 79.2063 41.7564 79.4123 41.8406C79.6182 41.9249 79.8053 42.0493 79.9626 42.2066C80.1199 42.3639 80.2444 42.551 80.3286 42.757C80.4129 42.9629 80.4553 43.1836 80.4533 43.4061C80.4514 43.6286 80.4052 43.8484 80.3174 44.0529C80.2295 44.2573 80.1019 44.4422 79.9418 44.5968L56.1774 68.3679C55.8627 68.681 55.4366 68.8564 54.9927 68.8556Z" fill="#828282"/>
</svg>
