<svg width="124" height="124" viewBox="0 0 124 124" fill="none" xmlns="http://www.w3.org/2000/svg">
<path d="M65.0006 59.9999C63.4753 60.0027 61.9831 60.4449 60.7026 61.2739L34.3405 34.9119C33.546 34.1447 32.2798 34.1667 31.5125 34.9612C30.764 35.7362 30.764 36.9649 31.5125 37.7399L58.0006 64.2219C57.3561 65.3777 57.0121 66.6767 57.0006 67.9999C57.0006 72.4182 60.5823 75.9999 65.0006 75.9999C69.4188 75.9999 73.0006 72.4182 73.0006 67.9999C73.0006 63.5817 69.4188 59.9999 65.0006 59.9999ZM65.0006 71.9999C62.7913 71.9999 61.0006 70.2092 61.0006 67.9999C61.0006 65.7907 62.7913 63.9999 65.0006 63.9999C67.2098 63.9999 69.0006 65.7907 69.0006 67.9999C69.0006 70.2092 67.2098 71.9999 65.0006 71.9999Z" fill="#FEC825"/>
<path d="M120.982 66.556C120.677 53.3845 115.701 40.75 106.942 30.908L115.742 22.484C116.573 21.7557 116.656 20.492 115.927 19.6618C115.199 18.8313 113.935 18.7485 113.105 19.4767C113.06 19.516 113.018 19.557 112.977 19.6L104.177 28.018C103.977 27.818 103.777 27.6 103.555 27.398C93.6615 17.9708 80.6485 12.5085 66.9905 12.05C66.9905 12.032 67.0005 12.018 67.0005 12V4H73.0005C74.105 4 75.0005 3.1045 75.0005 2C75.0005 0.8955 74.105 0 73.0005 0H57.0005C55.896 0 55.0005 0.8955 55.0005 2C55.0005 3.1045 55.896 4 57.0005 4H63.0005V12C63.0005 12.016 63.0005 12.03 63.0005 12.048C38.2417 12.9658 17.018 30.0195 10.7905 54H5.00049C3.89599 54 3.00049 54.8955 3.00049 56C3.00049 57.1045 3.89599 58 5.00049 58H9.89849C9.42224 60.6427 9.13749 63.3162 9.04649 66H7.00049C5.89599 66 5.00049 66.8955 5.00049 68C5.00049 69.1045 5.89599 70 7.00049 70H9.04649C9.13924 72.6835 9.42274 75.3568 9.89449 78H7.00049C5.89599 78 5.00049 78.8955 5.00049 80C5.00049 81.1045 5.89599 82 7.00049 82H10.7745C17.16 106.709 39.4397 123.978 64.9605 124C65.4565 124 65.9512 123.993 66.4445 123.98C97.3465 123.148 121.744 97.4597 120.982 66.556ZM66.3425 119.982C42.5232 120.586 21.3342 104.941 14.8985 82H31.0005C32.105 82 33.0005 81.1045 33.0005 80C33.0005 78.8955 32.105 78 31.0005 78H13.9725C13.4617 75.3607 13.1535 72.6862 13.0505 70H41.0005C42.105 70 43.0005 69.1045 43.0005 68C43.0005 66.8955 42.105 66 41.0005 66H13.0505C13.153 63.3133 13.464 60.6385 13.9805 58H25.0005C26.105 58 27.0005 57.1045 27.0005 56C27.0005 54.8955 26.105 54 25.0005 54H14.9205C21.0917 32.0295 40.8462 16.6348 63.6585 16.018C64.1205 16 64.5765 16 65.0365 16C93.7552 16.0335 117.009 39.3418 116.976 68.0605C116.943 96.2235 94.4957 119.242 66.3425 119.982Z" fill="#828282"/>
</svg>
