<svg width="90" height="90" viewBox="0 0 90 90" fill="none" xmlns="http://www.w3.org/2000/svg">
<path d="M45.0001 79.2858C63.9355 79.2858 79.2858 63.9355 79.2858 45.0001C79.2858 26.0646 63.9355 10.7144 45.0001 10.7144C26.0646 10.7144 10.7144 26.0646 10.7144 45.0001C10.7144 63.9355 26.0646 79.2858 45.0001 79.2858Z" stroke="#FEC825" stroke-width="2" stroke-linecap="round" stroke-linejoin="round"/>
<path d="M45.0001 53.5716C49.734 53.5716 53.5716 49.734 53.5716 45.0001C53.5716 40.2663 49.734 36.4287 45.0001 36.4287C40.2663 36.4287 36.4287 40.2663 36.4287 45.0001C36.4287 49.734 40.2663 53.5716 45.0001 53.5716Z" stroke="#828282" stroke-width="2" stroke-linecap="round" stroke-linejoin="round"/>
<path d="M45.0001 66.4284C56.8348 66.4284 66.4287 56.8345 66.4287 44.9999C66.4287 33.1652 56.8348 23.5713 45.0001 23.5713C33.1654 23.5713 23.5715 33.1652 23.5715 44.9999C23.5715 56.8345 33.1654 66.4284 45.0001 66.4284Z" stroke="#FEC825" stroke-width="2" stroke-linecap="round" stroke-linejoin="round"/>
</svg>
