<svg width="66" height="66" viewBox="0 0 66 66" fill="none" xmlns="http://www.w3.org/2000/svg">
<path d="M49.604 38.0838C48.8519 38.084 48.1166 37.8611 47.4912 37.4434C46.8658 37.0256 46.3783 36.4318 46.0904 35.7369C45.8025 35.0421 45.7271 34.2775 45.8738 33.5398C46.0205 32.8021 46.3827 32.1245 46.9145 31.5927C47.4463 31.0609 48.1239 30.6987 48.8616 30.552C49.5993 30.4053 50.3639 30.4807 51.0587 30.7686C51.7536 31.0565 52.3474 31.544 52.7652 32.1694C53.1829 32.7949 53.4058 33.5301 53.4056 34.2823C53.4046 35.2902 53.0037 36.2565 52.291 36.9692C51.5783 37.6819 50.612 38.0828 49.604 38.0838ZM49.604 32.1298C49.1783 32.1297 48.7621 32.2558 48.408 32.4922C48.0539 32.7286 47.7779 33.0647 47.6149 33.458C47.4518 33.8513 47.4091 34.2841 47.492 34.7017C47.575 35.1192 47.7799 35.5028 48.0809 35.8039C48.3819 36.1051 48.7654 36.3101 49.183 36.3933C49.6005 36.4764 50.0334 36.4338 50.4267 36.2709C50.8201 36.108 51.1563 35.8321 51.3928 35.4782C51.6294 35.1242 51.7556 34.708 51.7556 34.2823C51.7552 33.7117 51.5284 33.1646 51.125 32.761C50.7216 32.3575 50.1746 32.1305 49.604 32.1298Z" fill="#FEC825"/>
<path d="M16.423 38.0838C15.6709 38.0838 14.9358 37.8608 14.3104 37.443C13.6851 37.0251 13.1977 36.4312 12.91 35.7364C12.6222 35.0415 12.5469 34.2769 12.6937 33.5393C12.8405 32.8017 13.2027 32.1242 13.7346 31.5924C14.2665 31.0607 14.9441 30.6986 15.6817 30.552C16.4194 30.4053 17.1839 30.4808 17.8787 30.7687C18.5735 31.0566 19.1673 31.5441 19.585 32.1695C20.0027 32.7949 20.2256 33.5302 20.2255 34.2823C20.2244 35.2903 19.8234 36.2567 19.1105 36.9695C18.3976 37.6822 17.4311 38.083 16.423 38.0838ZM16.423 32.1298C15.9973 32.1298 15.5812 32.2561 15.2272 32.4926C14.8732 32.7291 14.5974 33.0653 14.4345 33.4586C14.2715 33.8519 14.2289 34.2846 14.312 34.7022C14.395 35.1197 14.6 35.5032 14.901 35.8042C15.2021 36.1053 15.5856 36.3103 16.0031 36.3933C16.4206 36.4764 16.8534 36.4337 17.2467 36.2708C17.64 36.1079 17.9762 35.832 18.2127 35.4781C18.4492 35.1241 18.5755 34.708 18.5755 34.2823C18.5748 33.7116 18.3478 33.1645 17.9443 32.761C17.5408 32.3575 16.9937 32.1305 16.423 32.1298Z" fill="#FEC825"/>
<path d="M43.9989 39.8402H22.2701C22.1231 39.8401 21.9789 39.8007 21.8522 39.7261C21.7256 39.6516 21.6212 39.5445 21.5498 39.4161C21.4783 39.2876 21.4425 39.1424 21.446 38.9955C21.4495 38.8486 21.4922 38.7053 21.5697 38.5804L23.9894 34.6765C24.0635 34.5573 24.1668 34.459 24.2895 34.3908C24.4122 34.3227 24.5503 34.287 24.6906 34.2871H41.58C41.7204 34.287 41.8584 34.3227 41.9812 34.3908C42.1039 34.459 42.2072 34.5573 42.2813 34.6765L44.7018 38.5804C44.7793 38.7054 44.822 38.8487 44.8255 38.9957C44.8289 39.1427 44.793 39.288 44.7215 39.4164C44.65 39.5449 44.5455 39.6519 44.4187 39.7264C44.292 39.8009 44.1476 39.8402 44.0006 39.8402H43.9989ZM23.7526 38.1902H42.5164L41.1197 35.9371H25.1493L23.7526 38.1902Z" fill="#FEC825"/>
<path d="M46.1498 42.8356H19.6888C19.47 42.8356 19.2601 42.7486 19.1054 42.5939C18.9507 42.4392 18.8638 42.2294 18.8638 42.0106C18.8638 41.7917 18.9507 41.5819 19.1054 41.4272C19.2601 41.2725 19.47 41.1855 19.6888 41.1855H46.1498C46.3686 41.1855 46.5785 41.2725 46.7332 41.4272C46.8879 41.5819 46.9748 41.7917 46.9748 42.0106C46.9748 42.2294 46.8879 42.4392 46.7332 42.5939C46.5785 42.7486 46.3686 42.8356 46.1498 42.8356Z" fill="#FEC825"/>
<path d="M54.5137 46.4336H11.5139C10.6609 46.4325 9.84314 46.0932 9.23998 45.49C8.63681 44.8868 8.29748 44.0691 8.29639 43.2161V35.82C8.29988 33.563 9.19817 31.3995 10.7943 29.8038C12.3905 28.2081 14.5542 27.3105 16.8112 27.3076H49.2156C51.4728 27.3102 53.6368 28.2078 55.2333 29.8035C56.8297 31.3992 57.7283 33.5628 57.732 35.82V43.2153C57.7312 44.0686 57.3918 44.8866 56.7884 45.49C56.1851 46.0934 55.367 46.4327 54.5137 46.4336ZM16.8112 28.9576C14.9909 28.9596 13.2458 29.6836 11.9586 30.9707C10.6715 32.2578 9.94753 34.003 9.94556 35.8233V43.2186C9.94556 43.6343 10.1107 44.033 10.4047 44.327C10.6986 44.6209 11.0973 44.7861 11.5131 44.7861H54.5137C54.9294 44.7861 55.3281 44.6209 55.6221 44.327C55.9161 44.033 56.0812 43.6343 56.0812 43.2186V35.82C56.0782 34.0003 55.3537 32.2561 54.0667 30.9698C52.7797 29.6834 51.0352 28.9598 49.2156 28.9576H16.8112Z" fill="#FEC825"/>
<path d="M52.3313 50.4135H47.8672C47.3775 50.4128 46.908 50.218 46.5618 49.8717C46.2155 49.5255 46.0207 49.056 46.02 48.5663V45.6087C46.02 45.3899 46.1069 45.18 46.2617 45.0253C46.4164 44.8706 46.6262 44.7837 46.845 44.7837H53.3534C53.5722 44.7837 53.7821 44.8706 53.9368 45.0253C54.0915 45.18 54.1784 45.3899 54.1784 45.6087V48.5663C54.1778 49.056 53.983 49.5255 53.6367 49.8717C53.2904 50.218 52.821 50.4128 52.3313 50.4135ZM47.67 46.4337V48.5663C47.6702 48.6185 47.6911 48.6686 47.728 48.7055C47.7649 48.7424 47.815 48.7633 47.8672 48.7635H52.3313C52.3835 48.7633 52.4335 48.7424 52.4705 48.7055C52.5074 48.6686 52.5282 48.6185 52.5284 48.5663V46.4337H47.67Z" fill="#FEC825"/>
<path d="M18.1602 50.4135H13.6953C13.2056 50.4131 12.736 50.2183 12.3897 49.872C12.0433 49.5257 11.8486 49.0561 11.8481 48.5663V45.6087C11.8481 45.3899 11.9351 45.18 12.0898 45.0253C12.2445 44.8706 12.4543 44.7837 12.6731 44.7837H19.1816C19.4004 44.7837 19.6102 44.8706 19.7649 45.0253C19.9197 45.18 20.0066 45.3899 20.0066 45.6087V48.5663C20.0061 49.0559 19.8115 49.5254 19.4654 49.8717C19.1192 50.218 18.6498 50.4128 18.1602 50.4135ZM13.499 46.4337V48.5663C13.499 48.6186 13.5197 48.6688 13.5567 48.7057C13.5937 48.7427 13.6439 48.7635 13.6961 48.7635H18.1602C18.1861 48.7635 18.2117 48.7584 18.2356 48.7485C18.2594 48.7385 18.2811 48.724 18.2994 48.7057C18.3176 48.6874 18.332 48.6656 18.3419 48.6417C18.3517 48.6178 18.3567 48.5922 18.3566 48.5663V46.4337H13.499Z" fill="#FEC825"/>
<path d="M52.5033 29.6911C52.3424 29.6915 52.185 29.6449 52.0503 29.5569C51.9156 29.469 51.8095 29.3436 51.7451 29.1961L47.4238 19.2227C47.0178 18.6099 46.4662 18.1074 45.8182 17.7603C45.1703 17.4131 44.4464 17.2322 43.7113 17.2336H22.319C21.584 17.2325 20.8602 17.4136 20.2124 17.7608C19.5645 18.1079 19.0128 18.6102 18.6065 19.2227L14.2827 29.1928C14.2406 29.2937 14.179 29.3852 14.1012 29.462C14.0235 29.5388 13.9313 29.5995 13.8299 29.6403C13.7286 29.6812 13.6201 29.7016 13.5108 29.7002C13.4015 29.6988 13.2936 29.6757 13.1933 29.6323C13.093 29.5888 13.0024 29.5259 12.9266 29.4471C12.8509 29.3683 12.7915 29.2753 12.752 29.1734C12.7125 29.0715 12.6937 28.9627 12.6966 28.8535C12.6995 28.7442 12.724 28.6366 12.7688 28.5369L17.1166 18.505C17.1351 18.4633 17.1566 18.423 17.1809 18.3845C17.7339 17.5245 18.4943 16.8175 19.3922 16.3287C20.2902 15.8398 21.2967 15.5847 22.319 15.5869H43.7088C44.7312 15.5847 45.7377 15.8399 46.6355 16.3289C47.5333 16.818 48.2935 17.5252 48.8461 18.3853C48.8709 18.4233 48.8925 18.4633 48.9104 18.505L53.2598 28.5386C53.3147 28.6642 53.3373 28.8014 53.3258 28.938C53.3143 29.0745 53.2689 29.206 53.1939 29.3206C53.1188 29.4353 53.0163 29.5294 52.8958 29.5945C52.7752 29.6596 52.6403 29.6937 52.5033 29.6936V29.6911Z" fill="#FEC825"/>
<path d="M54.0556 28.7603H51.9007C51.6819 28.7603 51.472 28.6734 51.3173 28.5187C51.1626 28.364 51.0757 28.1542 51.0757 27.9354C51.0757 27.7165 51.1626 27.5067 51.3173 27.352C51.472 27.1973 51.6819 27.1104 51.9007 27.1104H54.0556C54.2744 27.1104 54.4842 27.1973 54.6389 27.352C54.7937 27.5067 54.8806 27.7165 54.8806 27.9354C54.8806 28.1542 54.7937 28.364 54.6389 28.5187C54.4842 28.6734 54.2744 28.7603 54.0556 28.7603Z" fill="#FEC825"/>
<path d="M59.1276 28.7594H54.0555C53.8367 28.7594 53.6268 28.6725 53.4721 28.5178C53.3174 28.363 53.2305 28.1532 53.2305 27.9344V24.2879C53.2305 24.0691 53.3174 23.8592 53.4721 23.7045C53.6268 23.5498 53.8367 23.4629 54.0555 23.4629H58.0798C58.6721 23.4635 59.24 23.6991 59.6588 24.118C60.0777 24.5368 60.3133 25.1047 60.3139 25.697V27.5747C60.3135 27.889 60.1883 28.1904 59.9659 28.4125C59.7434 28.6346 59.4419 28.7594 59.1276 28.7594ZM54.8805 27.1094H58.6631V25.697C58.6629 25.5421 58.6013 25.3937 58.4918 25.2842C58.3823 25.1747 58.2338 25.1131 58.079 25.1129H54.8805V27.1094Z" fill="#FEC825"/>
<path d="M14.099 28.7603H11.9441C11.7253 28.7603 11.5155 28.6734 11.3608 28.5187C11.2061 28.364 11.1191 28.1542 11.1191 27.9354C11.1191 27.7165 11.2061 27.5067 11.3608 27.352C11.5155 27.1973 11.7253 27.1104 11.9441 27.1104H14.099C14.3178 27.1104 14.5277 27.1973 14.6824 27.352C14.8371 27.5067 14.924 27.7165 14.924 27.9354C14.924 28.1542 14.8371 28.364 14.6824 28.5187C14.5277 28.6734 14.3178 28.7603 14.099 28.7603Z" fill="#FEC825"/>
<path d="M11.9441 28.7594H6.87205C6.55784 28.7592 6.25655 28.6343 6.03429 28.4122C5.81203 28.1901 5.68696 27.8889 5.68652 27.5747V25.697C5.68718 25.1048 5.92265 24.5371 6.34131 24.1183C6.75996 23.6994 7.32762 23.4638 7.9198 23.4629H11.9433C12.1621 23.4629 12.372 23.5498 12.5267 23.7045C12.6814 23.8592 12.7683 24.0691 12.7683 24.2879V27.9344C12.7683 28.1531 12.6815 28.3628 12.527 28.5175C12.3724 28.6722 12.1628 28.7592 11.9441 28.7594ZM7.33652 27.1094H11.1191V25.1129H7.9198C7.76495 25.1131 7.61651 25.1747 7.50702 25.2842C7.39752 25.3937 7.33592 25.5421 7.3357 25.697L7.33652 27.1094Z" fill="#FEC825"/>
</svg>
