<svg width="66" height="66" viewBox="0 0 66 66" fill="none" xmlns="http://www.w3.org/2000/svg">
<path d="M55.9154 50.2261C55.759 50.2258 55.6054 50.1843 55.4701 50.1059C55.3347 50.0275 55.2224 49.9149 55.1443 49.7794C55.0663 49.6438 55.0252 49.4901 55.0253 49.3337C55.0254 49.1773 55.0666 49.0237 55.1448 48.8882C57.0842 45.5242 58.2784 41.7828 58.6466 37.9173C59.0149 34.0518 58.5485 30.1522 57.2791 26.4825C56.0097 22.8128 53.9669 19.4586 51.2889 16.6468C48.6108 13.835 45.3601 11.6312 41.7566 10.1846C41.537 10.0966 41.3613 9.92496 41.2682 9.70743C41.1751 9.48991 41.1723 9.24432 41.2603 9.02468C41.3483 8.80505 41.5199 8.62937 41.7374 8.53629C41.955 8.44321 42.2006 8.44035 42.4202 8.52835C46.2612 10.07 49.7263 12.4187 52.5809 15.4157C55.4355 18.4126 57.6131 21.9878 58.9661 25.8993C60.3192 29.8107 60.8162 33.9672 60.4236 38.0875C60.031 42.2077 58.7579 46.1955 56.6904 49.781C56.6118 49.9168 56.4988 50.0295 56.3627 50.1076C56.2266 50.1858 56.0723 50.2266 55.9154 50.2261Z" fill="#FEC825"/>
<path d="M31.678 64.2163C26.6111 64.2059 21.6355 62.8677 17.2472 60.3348C12.8588 57.802 9.21107 54.1632 6.66753 49.781C6.603 49.6795 6.55967 49.566 6.54015 49.4473C6.52062 49.3286 6.52531 49.2072 6.55393 49.0903C6.58255 48.9735 6.6345 48.8637 6.70667 48.7674C6.77884 48.6712 6.86973 48.5906 6.97387 48.5304C7.07801 48.4702 7.19325 48.4317 7.31267 48.4172C7.43208 48.4026 7.55319 48.4124 7.66871 48.446C7.78424 48.4795 7.89179 48.536 7.9849 48.6122C8.07801 48.6883 8.15475 48.7825 8.2105 48.8891C10.2666 52.449 13.1058 55.4943 16.513 57.7946C19.9202 60.0948 23.8061 61.5897 27.8766 62.1659C31.947 62.7421 36.0951 62.3846 40.0069 61.1204C43.9187 59.8562 47.4916 57.7186 50.455 54.8693C50.6254 54.7052 50.854 54.6156 51.0905 54.6201C51.327 54.6246 51.5521 54.7229 51.7161 54.8933C51.8801 55.0638 51.9698 55.2924 51.9653 55.5289C51.9607 55.7654 51.8624 55.9904 51.692 56.1545C46.3211 61.3394 39.1432 64.2307 31.678 64.2163Z" fill="#FEC825"/>
<path d="M4.3864 42.454C4.18415 42.4539 3.98793 42.3851 3.82992 42.2589C3.67191 42.1326 3.5615 41.9564 3.51681 41.7592C2.55825 37.5301 2.5635 33.1395 3.53216 28.9128C4.50082 24.686 6.40807 20.7313 9.11261 17.3417C11.8171 13.9521 15.2497 11.2144 19.1559 9.33151C23.0621 7.44859 27.3419 6.46867 31.6783 6.46436C31.9148 6.46436 32.1417 6.55832 32.309 6.72558C32.4762 6.89285 32.5702 7.1197 32.5702 7.35625C32.5702 7.59279 32.4762 7.81965 32.309 7.98691C32.1417 8.15417 31.9148 8.24814 31.6783 8.24814C27.6101 8.25194 23.5948 9.17117 19.9301 10.9377C16.2655 12.7043 13.0453 15.2728 10.5082 18.4531C7.9712 21.6333 6.18234 25.3437 5.27422 29.3093C4.3661 33.2749 4.362 37.394 5.26224 41.3614C5.28862 41.4759 5.29213 41.5944 5.27258 41.7102C5.25303 41.826 5.21081 41.9368 5.14832 42.0362C5.08584 42.1357 5.00433 42.2218 4.90848 42.2897C4.81262 42.3575 4.70431 42.4058 4.58975 42.4317C4.52303 42.4468 4.45481 42.4542 4.3864 42.454Z" fill="#FEC825"/>
<path d="M26.9986 12.9325C26.8221 12.9327 26.6496 12.8805 26.5028 12.7825C26.356 12.6846 26.2416 12.5453 26.174 12.3823C26.1064 12.2193 26.0887 12.04 26.123 11.8669C26.1574 11.6938 26.2423 11.5348 26.3671 11.4101L30.4136 7.35641L26.3671 3.30633C26.2843 3.22347 26.2186 3.1251 26.1738 3.01685C26.129 2.90861 26.106 2.7926 26.106 2.67545C26.1061 2.5583 26.1292 2.44231 26.1741 2.33409C26.2189 2.22588 26.2847 2.12756 26.3675 2.04475C26.4504 1.96194 26.5488 1.89627 26.657 1.85148C26.7653 1.80668 26.8813 1.78365 26.9984 1.78369C27.1156 1.78373 27.2316 1.80685 27.3398 1.85172C27.448 1.89659 27.5463 1.96233 27.6291 2.0452L32.3089 6.72584C32.4761 6.8931 32.57 7.11991 32.57 7.35641C32.57 7.59291 32.4761 7.81973 32.3089 7.98698L27.6291 12.665C27.5468 12.7489 27.4488 12.8158 27.3405 12.8617C27.2323 12.9076 27.1161 12.9317 26.9986 12.9325Z" fill="#FEC825"/>
<path d="M5.73129 56.6175C5.65301 56.6175 5.57506 56.6073 5.4994 56.5872C5.38625 56.5569 5.28018 56.5046 5.18725 56.4332C5.09432 56.3619 5.01636 56.273 4.9578 56.1715C4.89924 56.0701 4.86125 55.9581 4.84598 55.8419C4.83072 55.7258 4.83848 55.6078 4.86883 55.4946L6.58127 49.1015C6.64254 48.8738 6.79152 48.6796 6.9956 48.5615C7.19968 48.4433 7.44226 48.4108 7.67027 48.471L14.0633 50.1843C14.1797 50.2116 14.2893 50.2619 14.3858 50.3324C14.4823 50.4028 14.5637 50.492 14.6251 50.5945C14.6865 50.697 14.7266 50.8108 14.7432 50.9291C14.7597 51.0475 14.7523 51.1679 14.7214 51.2833C14.6905 51.3988 14.6367 51.5068 14.5633 51.601C14.4898 51.6953 14.3982 51.7738 14.2938 51.8319C14.1894 51.89 14.0744 51.9266 13.9556 51.9394C13.8368 51.9522 13.7166 51.9411 13.6022 51.9065L8.07251 50.4251L6.59108 55.9548C6.54064 56.1445 6.42905 56.3122 6.27361 56.432C6.11817 56.5518 5.92755 56.617 5.73129 56.6175Z" fill="#FEC825"/>
<path d="M55.9126 50.2243C55.7164 50.2241 55.5258 50.1593 55.3702 50.0398C55.2146 49.9203 55.1027 49.7529 55.0519 49.5634L53.335 43.1676C53.2822 42.9421 53.3192 42.7048 53.4382 42.506C53.5572 42.3072 53.7489 42.1625 53.9728 42.1026C54.1966 42.0427 54.4349 42.0722 54.6373 42.1849C54.8397 42.2976 54.9904 42.4847 55.0573 42.7065L56.5396 48.2363L62.0694 46.7539C62.2974 46.694 62.54 46.7269 62.7439 46.8454C62.9478 46.9638 63.0965 47.1582 63.1575 47.386C63.2184 47.6138 63.1867 47.8565 63.0692 48.061C62.9517 48.2654 62.758 48.4151 62.5305 48.4771L56.1374 50.1904C56.0642 50.2113 55.9887 50.2227 55.9126 50.2243Z" fill="#FEC825"/>
<path d="M32.1077 52.7706C28.6385 52.7706 25.2471 51.7419 22.3626 49.8145C19.478 47.8871 17.2297 45.1476 15.9021 41.9424C14.5745 38.7372 14.2271 35.2104 14.9039 31.8078C15.5808 28.4052 17.2514 25.2797 19.7045 22.8266C22.1576 20.3734 25.2831 18.7028 28.6857 18.026C32.0883 17.3492 35.6152 17.6966 38.8203 19.0242C42.0255 20.3518 44.765 22.6001 46.6924 25.4846C48.6198 28.3692 49.6486 31.7606 49.6486 35.2298C49.6434 39.8803 47.7937 44.3389 44.5052 47.6273C41.2168 50.9157 36.7583 52.7654 32.1077 52.7706ZM32.1077 19.4728C28.9913 19.4728 25.9448 20.3969 23.3536 22.1283C20.7624 23.8597 18.7427 26.3206 17.5501 29.1998C16.3575 32.0791 16.0455 35.2473 16.6535 38.3039C17.2614 41.3604 18.7622 44.1681 20.9658 46.3717C23.1695 48.5754 25.9771 50.0761 29.0337 50.6841C32.0903 51.2921 35.2585 50.98 38.1377 49.7874C41.0169 48.5948 43.4778 46.5752 45.2092 43.984C46.9407 41.3927 47.8648 38.3463 47.8648 35.2298C47.8598 31.0523 46.1981 27.0473 43.2442 24.0934C40.2902 21.1394 36.2852 19.4777 32.1077 19.4728Z" fill="#FEC825"/>
<path d="M32.1082 35.9923C31.116 35.9923 30.146 35.698 29.321 35.1468C28.4959 34.5955 27.8529 33.812 27.4732 32.8953C27.0935 31.9786 26.9941 30.9698 27.1877 29.9966C27.3813 29.0235 27.8591 28.1295 28.5607 27.4279C29.2623 26.7263 30.1563 26.2485 31.1295 26.0549C32.1026 25.8613 33.1114 25.9607 34.0281 26.3404C34.9448 26.7201 35.7283 27.3631 36.2796 28.1882C36.8309 29.0132 37.1251 29.9831 37.1251 30.9754C37.1251 31.2119 37.0311 31.4388 36.8639 31.606C36.6966 31.7733 36.4697 31.8673 36.2332 31.8673C35.9967 31.8673 35.7698 31.7733 35.6025 31.606C35.4353 31.4388 35.3413 31.2119 35.3413 30.9754C35.3413 30.3359 35.1517 29.7108 34.7964 29.1792C34.4412 28.6475 33.9362 28.2331 33.3455 27.9884C32.7547 27.7437 32.1046 27.6797 31.4775 27.8044C30.8503 27.9292 30.2742 28.2371 29.822 28.6892C29.3699 29.1414 29.062 29.7175 28.9372 30.3446C28.8125 30.9718 28.8765 31.6219 29.1212 32.2126C29.3659 32.8034 29.7803 33.3084 30.312 33.6636C30.8437 34.0189 31.4688 34.2085 32.1082 34.2085C32.3447 34.2085 32.5716 34.3025 32.7389 34.4697C32.9061 34.637 33.0001 34.8638 33.0001 35.1004C33.0001 35.3369 32.9061 35.5638 32.7389 35.731C32.5716 35.8983 32.3447 35.9923 32.1082 35.9923Z" fill="#FEC825"/>
<path d="M32.1082 44.2423C30.7781 44.2409 29.5028 43.7119 28.5623 42.7713C27.6217 41.8308 27.0927 40.5555 27.0913 39.2254C27.0913 38.9888 27.1853 38.762 27.3525 38.5947C27.5198 38.4275 27.7467 38.3335 27.9832 38.3335C28.2197 38.3335 28.4466 38.4275 28.6139 38.5947C28.7811 38.762 28.8751 38.9888 28.8751 39.2254C28.8751 39.8648 29.0647 40.4899 29.42 41.0216C29.7752 41.5533 30.2802 41.9677 30.8709 42.2124C31.4617 42.4571 32.1118 42.5211 32.739 42.3964C33.3661 42.2716 33.9422 41.9637 34.3944 41.5115C34.8465 41.0594 35.1544 40.4833 35.2792 39.8561C35.4039 39.229 35.3399 38.5789 35.0952 37.9881C34.8505 37.3974 34.4361 36.8924 33.9044 36.5372C33.3727 36.1819 32.7477 35.9923 32.1082 35.9923C31.8717 35.9923 31.6448 35.8983 31.4775 35.7311C31.3103 35.5638 31.2163 35.3369 31.2163 35.1004C31.2163 34.8638 31.3103 34.637 31.4775 34.4697C31.6448 34.3025 31.8717 34.2085 32.1082 34.2085C33.4388 34.2085 34.7148 34.7371 35.6557 35.6779C36.5965 36.6188 37.1251 37.8948 37.1251 39.2254C37.1251 40.556 36.5965 41.832 35.6557 42.7729C34.7148 43.7137 33.4388 44.2423 32.1082 44.2423Z" fill="#FEC825"/>
<path d="M32.1082 46.2097C31.8717 46.2097 31.6448 46.1157 31.4775 45.9484C31.3103 45.7812 31.2163 45.5543 31.2163 45.3178V25.1414C31.2163 24.9049 31.3103 24.678 31.4775 24.5107C31.6448 24.3435 31.8717 24.2495 32.1082 24.2495C32.3447 24.2495 32.5716 24.3435 32.7389 24.5107C32.9061 24.678 33.0001 24.9049 33.0001 25.1414V45.3178C33.0001 45.5543 32.9061 45.7812 32.7389 45.9484C32.5716 46.1157 32.3447 46.2097 32.1082 46.2097Z" fill="#FEC825"/>
</svg>
