<svg width="89" height="33" viewBox="0 0 89 33" fill="none" xmlns="http://www.w3.org/2000/svg">
<path d="M1.7035 0.000745119C2.04108 -0.000558013 2.37139 0.0984724 2.65258 0.285265C2.93377 0.472058 3.15313 0.738189 3.2828 1.04988L15.2858 29.4441C15.3114 29.5132 15.3576 29.5728 15.4181 29.6148C15.4786 29.6569 15.5505 29.6795 15.6242 29.6795C15.6979 29.6795 15.7698 29.6569 15.8303 29.6148C15.8908 29.5728 15.937 29.5132 15.9626 29.4441L27.7625 1.06116C27.8924 0.746466 28.113 0.477568 28.3963 0.288721C28.6796 0.0998729 29.0127 -0.000376013 29.3531 0.000745119C29.8079 0.000745119 30.2441 0.181401 30.5656 0.502971C30.8872 0.824542 31.0678 1.26068 31.0678 1.71545V31.4859C31.0678 31.7522 30.9621 32.0076 30.7738 32.1959C30.5855 32.3842 30.3301 32.4899 30.0638 32.4899C29.7975 32.4899 29.5422 32.3842 29.3539 32.1959C29.1656 32.0076 29.0599 31.7522 29.0599 31.4859V4.31008C29.058 4.22584 29.0276 4.14473 28.9737 4.08C28.9197 4.01527 28.8454 3.97075 28.7629 3.95372C28.6804 3.93669 28.5945 3.94816 28.5194 3.98625C28.4442 4.02435 28.3842 4.08681 28.3492 4.16342L16.9779 31.5649C16.8629 31.8382 16.6699 32.0716 16.4232 32.2361C16.1765 32.4006 15.8869 32.4888 15.5904 32.4899C15.2948 32.4911 15.0056 32.4036 14.7602 32.2387C14.5149 32.0738 14.3246 31.8391 14.2141 31.5649L2.69616 4.14086C2.66111 4.06424 2.60111 4.00178 2.52596 3.96369C2.4508 3.9256 2.36494 3.91413 2.28242 3.93116C2.1999 3.94819 2.1256 3.99271 2.07166 4.05744C2.01772 4.12216 1.98739 4.20328 1.98553 4.28751V31.4859C1.98702 31.6173 1.96238 31.7476 1.91316 31.8693C1.86394 31.9911 1.79108 32.1018 1.69875 32.1952C1.60642 32.2886 1.49646 32.3627 1.37528 32.4133C1.25409 32.4639 1.12412 32.49 0.992795 32.4899C0.861474 32.49 0.731429 32.4639 0.610245 32.4133C0.48906 32.3627 0.379103 32.2886 0.28677 32.1952C0.194438 32.1018 0.121581 31.9911 0.0723604 31.8693C0.0231398 31.7476 -0.00142816 31.6173 6.41226e-05 31.4859V1.71545C5.43229e-05 1.26263 0.179154 0.82819 0.498289 0.506943C0.817423 0.185695 1.25069 0.0037242 1.7035 0.000745119Z" fill="#333333"/>
<path d="M78.1844 20.1256L70.7051 10.4353C70.6067 10.3049 70.5465 10.1496 70.5313 9.9869C70.5161 9.82419 70.5465 9.66047 70.6191 9.51408C70.6917 9.36768 70.8037 9.2444 70.9424 9.15804C71.0811 9.07169 71.2411 9.02567 71.4046 9.02515H71.6076C71.743 9.02726 71.8761 9.05978 71.9972 9.12032C72.1183 9.18085 72.2241 9.26785 72.307 9.37486L79.3689 18.8058L86.4759 9.37486C86.5571 9.26595 86.6626 9.17758 86.784 9.11685C86.9055 9.05612 87.0395 9.02471 87.1753 9.02515C87.3376 9.02513 87.4967 9.07058 87.6345 9.15634C87.7722 9.2421 87.8833 9.36474 87.9549 9.51036C88.0265 9.65598 88.0559 9.81875 88.0398 9.98024C88.0236 10.1417 87.9626 10.2954 87.8635 10.424L80.4744 20.1256L88.6531 31.023C88.7522 31.1516 88.8133 31.3053 88.8295 31.4668C88.8456 31.6283 88.8162 31.7911 88.7446 31.9367C88.6729 32.0823 88.5619 32.2049 88.4241 32.2907C88.2864 32.3765 88.1273 32.4219 87.965 32.4219H87.7846C87.6474 32.4229 87.5121 32.3906 87.3903 32.3277C87.2685 32.2648 87.1637 32.1732 87.0851 32.0609L79.3351 21.4455L71.4384 32.0609C71.3579 32.1712 71.2527 32.2613 71.1313 32.324C71.0099 32.3866 70.8756 32.4201 70.7389 32.4219C70.5757 32.424 70.4152 32.3801 70.2758 32.2952C70.1363 32.2103 70.0237 32.0878 69.9506 31.9418C69.8776 31.7958 69.8472 31.6321 69.8629 31.4696C69.8787 31.3071 69.9399 31.1524 70.0395 31.023L78.1844 20.1256Z" fill="#333333"/>
<path d="M59.4559 10.1053C59.4522 10.2853 59.5194 10.4599 59.6439 10.5941C59.7684 10.7282 59.9411 10.8121 60.1271 10.8286C63.2218 11.0917 67.0104 13.152 67.0104 16.0344V23.3553C67.0131 24.9664 66.5094 26.5405 65.5655 27.8706C64.8792 28.8524 63.9684 29.6697 62.9032 30.2597C61.4678 31.0206 59.8406 31.3811 58.2044 31.3009C56.5147 31.4256 54.8412 30.9105 53.5396 29.8652C53.0425 29.4148 52.649 28.869 52.3844 28.2631C52.1199 27.6571 51.9902 27.0044 52.0037 26.3472C51.9481 25.6759 52.0702 25.002 52.3588 24.3886C52.6473 23.7753 53.0928 23.2425 53.6534 22.8402C55.1883 21.8968 56.9543 21.36 58.7732 21.2839C58.9583 21.27 59.1309 21.1885 59.2556 21.0561C59.3804 20.9237 59.448 20.7504 59.4445 20.5716C59.4463 20.4733 59.4269 20.3758 59.3876 20.285C59.3483 20.1943 59.29 20.1124 59.2163 20.0445C59.1425 19.9765 59.055 19.924 58.9592 19.8903C58.8633 19.8565 58.7613 19.8422 58.6595 19.8483C56.7168 19.9585 54.8222 20.4745 53.1073 21.3607C52.2507 21.8297 51.5397 22.5108 51.048 23.3334C50.463 24.3343 50.183 25.4739 50.2402 26.6212C50.204 27.6591 50.406 28.6919 50.8318 29.646C51.2137 30.4164 51.7932 31.0803 52.5157 31.5749C53.2723 32.1005 54.1314 32.4733 55.0415 32.6708C56.0562 32.8961 57.0948 33.0065 58.1361 32.9996C65.8158 32.9996 68.7398 27.3664 68.7398 23.7279V16.0563C68.7398 11.3656 63.9841 9.48062 60.2637 9.20664C60.1608 9.2007 60.0577 9.21493 59.9606 9.24848C59.8636 9.28202 59.7746 9.33418 59.6991 9.4018C59.6236 9.46941 59.5631 9.55108 59.5213 9.64187C59.4795 9.73265 59.4572 9.83066 59.4559 9.92996V10.1053Z" fill="#333333"/>
<path d="M52.6349 9.74794V9.82691C52.6322 10.0137 52.5583 10.1924 52.4283 10.3266C52.2983 10.4608 52.1221 10.5403 51.9355 10.5489C44.851 10.9437 43.5424 17.3175 43.5424 19.7429V31.8022C43.5425 31.9948 43.4668 32.1796 43.3317 32.3168C43.1966 32.454 43.0129 32.5325 42.8204 32.5355H42.5497C42.3552 32.5355 42.1687 32.4583 42.0312 32.3207C41.8937 32.1832 41.8164 31.9967 41.8164 31.8022V20.4423C41.8164 10.6504 48.6527 9.16133 51.8904 9.02596C51.9875 9.02131 52.0844 9.03664 52.1754 9.07098C52.2663 9.10533 52.3492 9.15796 52.419 9.22564C52.4888 9.29331 52.544 9.37457 52.5811 9.46441C52.6182 9.55425 52.6365 9.65075 52.6349 9.74794Z" fill="#333333"/>
<path d="M35.5792 1.02657V0.868635C35.5792 0.6402 35.6691 0.420952 35.8296 0.258372C35.9901 0.0957914 36.2081 0.00296669 36.4365 0C36.6669 0 36.8878 0.0915166 37.0507 0.254417C37.2137 0.417318 37.3052 0.638259 37.3052 0.868635V1.02657C37.3052 1.14011 37.2826 1.25253 37.2389 1.35729C37.1951 1.46205 37.1309 1.55707 37.0501 1.63683C36.9693 1.7166 36.8734 1.77951 36.7681 1.82193C36.6628 1.86434 36.5501 1.88542 36.4365 1.88392C36.2092 1.88392 35.9911 1.79359 35.8303 1.63281C35.6695 1.47202 35.5792 1.25395 35.5792 1.02657ZM35.5792 31.6319V9.97238C35.5777 9.85885 35.5988 9.74615 35.6412 9.64082C35.6836 9.5355 35.7465 9.43965 35.8263 9.35884C35.9061 9.27802 36.0011 9.21386 36.1058 9.17007C36.2106 9.12628 36.323 9.10374 36.4365 9.10375C36.551 9.10223 36.6647 9.12366 36.7708 9.16678C36.8768 9.2099 36.9732 9.27382 37.0542 9.35479C37.1351 9.43575 37.199 9.53211 37.2422 9.63818C37.2853 9.74426 37.3067 9.85789 37.3052 9.97238V31.6319C37.3052 31.8622 37.2137 32.0832 37.0507 32.2461C36.8878 32.409 36.6669 32.5005 36.4365 32.5005C36.2081 32.4975 35.9901 32.4047 35.8296 32.2421C35.6691 32.0795 35.5792 31.8603 35.5792 31.6319Z" fill="#333333"/>
</svg>
